<svg width="107.05000610351563px" height="118.39999999999999px" xmlns="http://www.w3.org/2000/svg" viewBox="196.4749969482422 15.800000000000004 107.05000610351563 118.39999999999999" style="background: rgba(181, 204, 241, 0);" preserveAspectRatio="xMidYMid"><defs><filter id="editing-hover" x="-100%" y="-100%" width="300%" height="300%"><feFlood flood-color="#a497c1" result="flood"></feFlood><feComposite operator="in" in2="SourceAlpha" in="flood" result="shadow"></feComposite><feOffset dx="-4" dy="-4" in="SourceGraphic" result="offset-1"></feOffset><feOffset dx="4" dy="4" in="shadow" result="offset-2"></feOffset><feMerge><feMergeNode in="offset-2"></feMergeNode><feMergeNode in="offset-1"></feMergeNode></feMerge></filter></defs><g filter="url(#editing-hover)"><g transform="translate(218.2199192047119, 98.06999588012695)"><path d="M15.87-0.26L15.87-0.26Q9.92-0.58 8.32-1.41L8.32-1.41L8.32-1.41Q6.72-2.24 4.93-5.50L4.93-5.50L4.93-5.50Q3.20-8.70 2.50-11.58L2.50-11.58L2.50-11.58Q1.92-14.40 1.92-23.94L1.92-23.94L1.92-23.94Q1.92-29.50 2.50-33.66L2.50-33.66L2.50-33.66Q3.07-37.82 4.67-40.45L4.67-40.45L4.67-40.45Q6.53-43.33 9.34-44.67L9.34-44.67L9.34-44.67Q12.29-46.08 17.73-46.14L17.73-46.14L17.73-46.14Q24.77-45.12 27.01-41.15L27.01-41.15L27.01-41.15Q29.25-37.18 29.63-32.64L29.63-32.64L29.63-32.64Q30.02-28.16 30.02-22.21L30.02-22.21L30.02-22.21Q30.02-16.06 29.18-11.26L29.18-11.26L29.18-11.26Q28.42-6.21 24.93-3.23L24.93-3.23L24.93-3.23Q21.44-0.26 15.87-0.26L15.87-0.26ZM17.15-42.43L17.15-42.43Q15.30-42.43 12.86-41.09L12.86-41.09L12.86-41.09Q10.56-39.87 9.28-37.31L9.28-37.31L9.28-37.31Q8.13-35.01 8.13-32.32L8.13-32.32L8.13-32.32Q8.13-30.46 8.19-29.25L8.19-29.25L8.26-23.74L8.38-17.54L8.38-17.54Q8.58-12.29 10.37-10.11L10.37-10.11L10.37-10.11Q12.93-7.04 13.57-6.14L13.57-6.14L13.57-6.14Q14.91-4.35 17.92-4.35L17.92-4.35L17.92-4.35Q19.78-4.35 21.79-5.73L21.79-5.73L21.79-5.73Q23.81-7.10 25.28-9.66L25.28-9.66L25.28-9.66Q26.69-12.03 26.69-15.74L26.69-15.74L26.62-20.22L26.62-20.22Q26.56-21.06 26.56-22.34L26.56-22.34L26.56-22.34Q26.69-27.20 26.69-28.74L26.69-28.74L26.69-28.74Q26.69-32.51 26.43-34.37L26.43-34.37L26.43-34.37Q25.92-38.27 24.83-40.19L24.83-40.19L24.83-40.19Q23.68-42.24 21.50-42.43L21.50-42.43L21.50-42.43Q20.10-42.56 19.33-42.56L19.33-42.56L19.33-42.56Q18.69-42.56 17.15-42.43L17.15-42.43ZM17.98-26.62L17.98-26.62Q21.25-26.62 21.25-22.46L21.25-22.46L21.25-22.46Q21.25-21.31 20.22-20.51L20.22-20.51L20.22-20.51Q19.20-19.71 17.98-19.71L17.98-19.71L17.98-19.71Q16.70-19.71 15.78-20.67L15.78-20.67L15.78-20.67Q14.85-21.63 14.85-23.42L14.85-23.42L14.85-23.42Q14.85-25.34 15.71-25.98L15.71-25.98L15.71-25.98Q16.58-26.62 17.98-26.62L17.98-26.62ZM50.50-44.80L50.50-44.80Q51.33-45.06 52.10-45.06L52.10-45.06L52.10-45.06Q52.80-45.06 53.18-44.83L53.18-44.83L53.18-44.83Q53.57-44.61 53.57-44.22L53.57-44.22L53.57-44.22Q53.57-42.05 53.44-38.85L53.44-38.85L53.38-36.54L52.99-30.66L52.99-26.18L53.18-22.27L53.18-22.27Q53.31-20.22 53.31-16.64L53.31-16.64L53.31-16.64Q53.38-15.94 53.38-13.50L53.38-13.50L53.38-13.50Q53.38-7.10 53.82-4.93L53.82-4.93L53.82-4.93Q61.44-4.61 61.44-4.03L61.44-4.03L61.63-1.28L61.63-1.28Q61.76 0 60.22 0L60.22 0L60.22 0Q57.54 0 55.36-0.26L55.36-0.26L55.36-0.26Q54.27-0.38 51.78-0.51L51.78-0.51L51.78-0.51Q48.70-0.32 43.52-0.13L43.52-0.13L41.02-0.19L41.02-0.19Q38.78-0.19 35.97 0L35.97 0L35.97 0Q35.33 0 35.01-1.86L35.01-1.86L35.01-1.86Q35.01-1.98 34.98-2.11L34.98-2.11L34.98-2.11Q34.94-2.24 35.01-2.43L35.01-2.43L35.01-2.43Q35.01-3.84 35.78-4.03L35.78-4.03L35.78-4.03Q39.68-4.54 42.88-5.31L42.88-5.31L42.88-5.31Q46.02-5.25 46.02-6.72L46.02-6.72L46.02-6.72Q46.08-7.74 46.08-9.47L46.08-9.47L46.08-9.47Q46.08-11.52 46.02-13.12L46.02-13.12L46.02-18.88L46.02-18.88Q46.08-22.02 45.89-24.90L45.89-24.90L45.82-28.10L45.89-31.36L46.08-37.57L38.53-35.78L38.53-35.78Q36.48-35.33 36.10-35.33L36.10-35.33L36.10-35.33Q35.39-35.33 35.39-35.65L35.39-35.65L35.39-35.65Q35.20-35.97 35.20-36.42L35.20-36.42L35.20-36.42Q35.14-38.91 35.33-39.68L35.33-39.68L35.33-39.68Q35.58-40.32 36.99-40.90L36.99-40.90L36.99-40.90Q43.26-41.22 50.50-44.80L50.50-44.80Z" fill="#542b55"></path></g></g><style>text {
  font-size: 64px;
  font-family: Arial Black;
  dominant-baseline: central;
  text-anchor: middle;
}</style></svg>