<svg width="107.05000610351563px" height="118.39999999999999px" xmlns="http://www.w3.org/2000/svg" viewBox="196.4749969482422 15.800000000000004 107.05000610351563 118.39999999999999" style="background: rgba(181, 204, 241, 0);" preserveAspectRatio="xMidYMid"><defs><filter id="editing-hover" x="-100%" y="-100%" width="300%" height="300%"><feFlood flood-color="#a497c1" result="flood"></feFlood><feComposite operator="in" in2="SourceAlpha" in="flood" result="shadow"></feComposite><feOffset dx="-4" dy="-4" in="SourceGraphic" result="offset-1"></feOffset><feOffset dx="4" dy="4" in="shadow" result="offset-2"></feOffset><feMerge><feMergeNode in="offset-2"></feMergeNode><feMergeNode in="offset-1"></feMergeNode></feMerge></filter></defs><g filter="url(#editing-hover)"><g transform="translate(217.50725317001343, 98.06999588012695)"><path d="M18.50-44.80L18.50-44.80Q19.33-45.06 20.10-45.06L20.10-45.06L20.10-45.06Q20.80-45.06 21.18-44.83L21.18-44.83L21.18-44.83Q21.57-44.61 21.57-44.22L21.57-44.22L21.57-44.22Q21.57-42.05 21.44-38.85L21.44-38.85L21.38-36.54L20.99-30.66L20.99-26.18L21.18-22.27L21.18-22.27Q21.31-20.22 21.31-16.64L21.31-16.64L21.31-16.64Q21.38-15.94 21.38-13.50L21.38-13.50L21.38-13.50Q21.38-7.10 21.82-4.93L21.82-4.93L21.82-4.93Q29.44-4.61 29.44-4.03L29.44-4.03L29.63-1.28L29.63-1.28Q29.76 0 28.22 0L28.22 0L28.22 0Q25.54 0 23.36-0.26L23.36-0.26L23.36-0.26Q22.27-0.38 19.78-0.51L19.78-0.51L19.78-0.51Q16.70-0.32 11.52-0.13L11.52-0.13L9.02-0.19L9.02-0.19Q6.78-0.19 3.97 0L3.97 0L3.97 0Q3.33 0 3.01-1.86L3.01-1.86L3.01-1.86Q3.01-1.98 2.98-2.11L2.98-2.11L2.98-2.11Q2.94-2.24 3.01-2.43L3.01-2.43L3.01-2.43Q3.01-3.84 3.78-4.03L3.78-4.03L3.78-4.03Q7.68-4.54 10.88-5.31L10.88-5.31L10.88-5.31Q14.02-5.25 14.02-6.72L14.02-6.72L14.02-6.72Q14.08-7.74 14.08-9.47L14.08-9.47L14.08-9.47Q14.08-11.52 14.02-13.12L14.02-13.12L14.02-18.88L14.02-18.88Q14.08-22.02 13.89-24.90L13.89-24.90L13.82-28.10L13.89-31.36L14.08-37.57L6.53-35.78L6.53-35.78Q4.48-35.33 4.10-35.33L4.10-35.33L4.10-35.33Q3.39-35.33 3.39-35.65L3.39-35.65L3.39-35.65Q3.20-35.97 3.20-36.42L3.20-36.42L3.20-36.42Q3.14-38.91 3.33-39.68L3.33-39.68L3.33-39.68Q3.58-40.32 4.99-40.90L4.99-40.90L4.99-40.90Q11.26-41.22 18.50-44.80L18.50-44.80ZM47.87-0.26L47.87-0.26Q41.92-0.58 40.32-1.41L40.32-1.41L40.32-1.41Q38.72-2.24 36.93-5.50L36.93-5.50L36.93-5.50Q35.20-8.70 34.50-11.58L34.50-11.58L34.50-11.58Q33.92-14.40 33.92-23.94L33.92-23.94L33.92-23.94Q33.92-29.50 34.50-33.66L34.50-33.66L34.50-33.66Q35.07-37.82 36.67-40.45L36.67-40.45L36.67-40.45Q38.53-43.33 41.34-44.67L41.34-44.67L41.34-44.67Q44.29-46.08 49.73-46.14L49.73-46.14L49.73-46.14Q56.77-45.12 59.01-41.15L59.01-41.15L59.01-41.15Q61.25-37.18 61.63-32.64L61.63-32.64L61.63-32.64Q62.02-28.16 62.02-22.21L62.02-22.21L62.02-22.21Q62.02-16.06 61.18-11.26L61.18-11.26L61.18-11.26Q60.42-6.21 56.93-3.23L56.93-3.23L56.93-3.23Q53.44-0.26 47.87-0.26L47.87-0.26ZM49.15-42.43L49.15-42.43Q47.30-42.43 44.86-41.09L44.86-41.09L44.86-41.09Q42.56-39.87 41.28-37.31L41.28-37.31L41.28-37.31Q40.13-35.01 40.13-32.32L40.13-32.32L40.13-32.32Q40.13-30.46 40.19-29.25L40.19-29.25L40.26-23.74L40.38-17.54L40.38-17.54Q40.58-12.29 42.37-10.11L42.37-10.11L42.37-10.11Q44.93-7.04 45.57-6.14L45.57-6.14L45.57-6.14Q46.91-4.35 49.92-4.35L49.92-4.35L49.92-4.35Q51.78-4.35 53.79-5.73L53.79-5.73L53.79-5.73Q55.81-7.10 57.28-9.66L57.28-9.66L57.28-9.66Q58.69-12.03 58.69-15.74L58.69-15.74L58.62-20.22L58.62-20.22Q58.56-21.06 58.56-22.34L58.56-22.34L58.56-22.34Q58.69-27.20 58.69-28.74L58.69-28.74L58.69-28.74Q58.69-32.51 58.43-34.37L58.43-34.37L58.43-34.37Q57.92-38.27 56.83-40.19L56.83-40.19L56.83-40.19Q55.68-42.24 53.50-42.43L53.50-42.43L53.50-42.43Q52.10-42.56 51.33-42.56L51.33-42.56L51.33-42.56Q50.69-42.56 49.15-42.43L49.15-42.43ZM49.98-26.62L49.98-26.62Q53.25-26.62 53.25-22.46L53.25-22.46L53.25-22.46Q53.25-21.31 52.22-20.51L52.22-20.51L52.22-20.51Q51.20-19.71 49.98-19.71L49.98-19.71L49.98-19.71Q48.70-19.71 47.78-20.67L47.78-20.67L47.78-20.67Q46.85-21.63 46.85-23.42L46.85-23.42L46.85-23.42Q46.85-25.34 47.71-25.98L47.71-25.98L47.71-25.98Q48.58-26.62 49.98-26.62L49.98-26.62Z" fill="#542b55"></path></g></g><style>text {
  font-size: 64px;
  font-family: Arial Black;
  dominant-baseline: central;
  text-anchor: middle;
}</style></svg>