<svg width="107.05000610351563px" height="118.39999999999999px" xmlns="http://www.w3.org/2000/svg" viewBox="196.4749969482422 15.800000000000004 107.05000610351563 118.39999999999999" style="background: rgba(181, 204, 241, 0);" preserveAspectRatio="xMidYMid"><defs><filter id="editing-hover" x="-100%" y="-100%" width="300%" height="300%"><feFlood flood-color="#a497c1" result="flood"></feFlood><feComposite operator="in" in2="SourceAlpha" in="flood" result="shadow"></feComposite><feOffset dx="-4" dy="-4" in="SourceGraphic" result="offset-1"></feOffset><feOffset dx="4" dy="4" in="shadow" result="offset-2"></feOffset><feMerge><feMergeNode in="offset-2"></feMergeNode><feMergeNode in="offset-1"></feMergeNode></feMerge></filter></defs><g filter="url(#editing-hover)"><g transform="translate(217.6971926689148, 97.52999687194824)"><path d="M18.50-44.80L18.50-44.80Q19.33-45.06 20.10-45.06L20.10-45.06L20.10-45.06Q20.80-45.06 21.18-44.83L21.18-44.83L21.18-44.83Q21.57-44.61 21.57-44.22L21.57-44.22L21.57-44.22Q21.57-42.05 21.44-38.85L21.44-38.85L21.38-36.54L20.99-30.66L20.99-26.18L21.18-22.27L21.18-22.27Q21.31-20.22 21.31-16.64L21.31-16.64L21.31-16.64Q21.38-15.94 21.38-13.50L21.38-13.50L21.38-13.50Q21.38-7.10 21.82-4.93L21.82-4.93L21.82-4.93Q29.44-4.61 29.44-4.03L29.44-4.03L29.63-1.28L29.63-1.28Q29.76 0 28.22 0L28.22 0L28.22 0Q25.54 0 23.36-0.26L23.36-0.26L23.36-0.26Q22.27-0.38 19.78-0.51L19.78-0.51L19.78-0.51Q16.70-0.32 11.52-0.13L11.52-0.13L9.02-0.19L9.02-0.19Q6.78-0.19 3.97 0L3.97 0L3.97 0Q3.33 0 3.01-1.86L3.01-1.86L3.01-1.86Q3.01-1.98 2.98-2.11L2.98-2.11L2.98-2.11Q2.94-2.24 3.01-2.43L3.01-2.43L3.01-2.43Q3.01-3.84 3.78-4.03L3.78-4.03L3.78-4.03Q7.68-4.54 10.88-5.31L10.88-5.31L10.88-5.31Q14.02-5.25 14.02-6.72L14.02-6.72L14.02-6.72Q14.08-7.74 14.08-9.47L14.08-9.47L14.08-9.47Q14.08-11.52 14.02-13.12L14.02-13.12L14.02-18.88L14.02-18.88Q14.08-22.02 13.89-24.90L13.89-24.90L13.82-28.10L13.89-31.36L14.08-37.57L6.53-35.78L6.53-35.78Q4.48-35.33 4.10-35.33L4.10-35.33L4.10-35.33Q3.39-35.33 3.39-35.65L3.39-35.65L3.39-35.65Q3.20-35.97 3.20-36.42L3.20-36.42L3.20-36.42Q3.14-38.91 3.33-39.68L3.33-39.68L3.33-39.68Q3.58-40.32 4.99-40.90L4.99-40.90L4.99-40.90Q11.26-41.22 18.50-44.80L18.50-44.80ZM50.50-44.80L50.50-44.80Q51.33-45.06 52.10-45.06L52.10-45.06L52.10-45.06Q52.80-45.06 53.18-44.83L53.18-44.83L53.18-44.83Q53.57-44.61 53.57-44.22L53.57-44.22L53.57-44.22Q53.57-42.05 53.44-38.85L53.44-38.85L53.38-36.54L52.99-30.66L52.99-26.18L53.18-22.27L53.18-22.27Q53.31-20.22 53.31-16.64L53.31-16.64L53.31-16.64Q53.38-15.94 53.38-13.50L53.38-13.50L53.38-13.50Q53.38-7.10 53.82-4.93L53.82-4.93L53.82-4.93Q61.44-4.61 61.44-4.03L61.44-4.03L61.63-1.28L61.63-1.28Q61.76 0 60.22 0L60.22 0L60.22 0Q57.54 0 55.36-0.26L55.36-0.26L55.36-0.26Q54.27-0.38 51.78-0.51L51.78-0.51L51.78-0.51Q48.70-0.32 43.52-0.13L43.52-0.13L41.02-0.19L41.02-0.19Q38.78-0.19 35.97 0L35.97 0L35.97 0Q35.33 0 35.01-1.86L35.01-1.86L35.01-1.86Q35.01-1.98 34.98-2.11L34.98-2.11L34.98-2.11Q34.94-2.24 35.01-2.43L35.01-2.43L35.01-2.43Q35.01-3.84 35.78-4.03L35.78-4.03L35.78-4.03Q39.68-4.54 42.88-5.31L42.88-5.31L42.88-5.31Q46.02-5.25 46.02-6.72L46.02-6.72L46.02-6.72Q46.08-7.74 46.08-9.47L46.08-9.47L46.08-9.47Q46.08-11.52 46.02-13.12L46.02-13.12L46.02-18.88L46.02-18.88Q46.08-22.02 45.89-24.90L45.89-24.90L45.82-28.10L45.89-31.36L46.08-37.57L38.53-35.78L38.53-35.78Q36.48-35.33 36.10-35.33L36.10-35.33L36.10-35.33Q35.39-35.33 35.39-35.65L35.39-35.65L35.39-35.65Q35.20-35.97 35.20-36.42L35.20-36.42L35.20-36.42Q35.14-38.91 35.33-39.68L35.33-39.68L35.33-39.68Q35.58-40.32 36.99-40.90L36.99-40.90L36.99-40.90Q43.26-41.22 50.50-44.80L50.50-44.80Z" fill="#542b55"></path></g></g><style>text {
  font-size: 64px;
  font-family: Arial Black;
  dominant-baseline: central;
  text-anchor: middle;
}</style></svg>