<svg width="107.05000610351563px" height="118.39999999999999px" xmlns="http://www.w3.org/2000/svg" viewBox="196.4749969482422 15.800000000000004 107.05000610351563 118.39999999999999" style="background: rgba(181, 204, 241, 0);" preserveAspectRatio="xMidYMid"><defs><filter id="editing-hover" x="-100%" y="-100%" width="300%" height="300%"><feFlood flood-color="#a497c1" result="flood"></feFlood><feComposite operator="in" in2="SourceAlpha" in="flood" result="shadow"></feComposite><feOffset dx="-4" dy="-4" in="SourceGraphic" result="offset-1"></feOffset><feOffset dx="4" dy="4" in="shadow" result="offset-2"></feOffset><feMerge><feMergeNode in="offset-2"></feMergeNode><feMergeNode in="offset-1"></feMergeNode></feMerge></filter></defs><g filter="url(#editing-hover)"><g transform="translate(217.52503156661987, 98.03999710083008)"><path d="M18.50-44.80L18.50-44.80Q19.33-45.06 20.10-45.06L20.10-45.06L20.10-45.06Q20.80-45.06 21.18-44.83L21.18-44.83L21.18-44.83Q21.57-44.61 21.57-44.22L21.57-44.22L21.57-44.22Q21.57-42.05 21.44-38.85L21.44-38.85L21.38-36.54L20.99-30.66L20.99-26.18L21.18-22.27L21.18-22.27Q21.31-20.22 21.31-16.64L21.31-16.64L21.31-16.64Q21.38-15.94 21.38-13.50L21.38-13.50L21.38-13.50Q21.38-7.10 21.82-4.93L21.82-4.93L21.82-4.93Q29.44-4.61 29.44-4.03L29.44-4.03L29.63-1.28L29.63-1.28Q29.76 0 28.22 0L28.22 0L28.22 0Q25.54 0 23.36-0.26L23.36-0.26L23.36-0.26Q22.27-0.38 19.78-0.51L19.78-0.51L19.78-0.51Q16.70-0.32 11.52-0.13L11.52-0.13L9.02-0.19L9.02-0.19Q6.78-0.19 3.97 0L3.97 0L3.97 0Q3.33 0 3.01-1.86L3.01-1.86L3.01-1.86Q3.01-1.98 2.98-2.11L2.98-2.11L2.98-2.11Q2.94-2.24 3.01-2.43L3.01-2.43L3.01-2.43Q3.01-3.84 3.78-4.03L3.78-4.03L3.78-4.03Q7.68-4.54 10.88-5.31L10.88-5.31L10.88-5.31Q14.02-5.25 14.02-6.72L14.02-6.72L14.02-6.72Q14.08-7.74 14.08-9.47L14.08-9.47L14.08-9.47Q14.08-11.52 14.02-13.12L14.02-13.12L14.02-18.88L14.02-18.88Q14.08-22.02 13.89-24.90L13.89-24.90L13.82-28.10L13.89-31.36L14.08-37.57L6.53-35.78L6.53-35.78Q4.48-35.33 4.10-35.33L4.10-35.33L4.10-35.33Q3.39-35.33 3.39-35.65L3.39-35.65L3.39-35.65Q3.20-35.97 3.20-36.42L3.20-36.42L3.20-36.42Q3.14-38.91 3.33-39.68L3.33-39.68L3.33-39.68Q3.58-40.32 4.99-40.90L4.99-40.90L4.99-40.90Q11.26-41.22 18.50-44.80L18.50-44.80ZM49.66-46.08L49.66-46.08Q52.61-46.08 54.91-44.67L54.91-44.67L54.91-44.67Q57.22-43.26 58.46-40.99L58.46-40.99L58.46-40.99Q59.71-38.72 59.71-36.22L59.71-36.22L59.71-36.22Q59.71-33.92 59.07-31.87L59.07-31.87L59.07-31.87Q58.43-29.82 57.73-28.58L57.73-28.58L57.73-28.58Q57.02-27.33 55.36-24.64L55.36-24.64L55.36-24.64Q54.21-22.72 49.38-16.35L49.38-16.35L49.38-16.35Q44.54-9.98 44.10-9.54L44.10-9.54L44.10-9.54Q43.78-9.22 43.52-8.90L43.52-8.90L43.52-8.90Q43.26-8.58 43.58-8.58L43.58-8.58L46.46-8.51L46.46-8.51Q47.94-8.51 48.70-8.58L48.70-8.58L48.70-8.58Q56.70-8.58 59.97-8.83L59.97-8.83L59.97-8.83Q61.38-8.96 61.70-8.54L61.70-8.54L61.70-8.54Q62.02-8.13 61.98-7.58L61.98-7.58L61.98-7.58Q61.95-7.04 61.95-6.85L61.95-6.85L61.95-6.85Q61.89-6.02 61.92-5.22L61.92-5.22L61.92-5.22Q61.95-4.42 61.95-3.84L61.95-3.84L61.95-1.98L61.95-1.98Q61.95-0.77 61.44-0.48L61.44-0.48L61.44-0.48Q60.93-0.19 59.46-0.19L59.46-0.19L59.46-0.19Q58.11-0.19 57.09-0.13L57.09-0.13L52.16-0.06L52.16-0.06Q50.30-0.06 49.73-0.13L49.73-0.13L39.62-0.19L39.62-0.19Q36.48-0.19 36.16-0.13L36.16-0.13L36.16-0.13Q35.90-0.06 35.26-0.06L35.26-0.06L35.26-0.06Q34.05-0.06 34.05-0.77L34.05-0.77L34.05-0.77Q34.05-1.22 34.37-1.70L34.37-1.70L34.37-1.70Q34.69-2.18 35.04-2.59L35.04-2.59L35.04-2.59Q35.39-3.01 35.58-3.20L35.58-3.20L38.78-7.23L38.78-7.23Q45.38-15.55 46.02-16.32L46.02-16.32L46.02-16.32Q46.14-16.45 47.17-17.66L47.17-17.66L47.17-17.66Q50.05-21.06 52.06-23.87L52.06-23.87L52.06-23.87Q54.08-26.69 55.55-30.34L55.55-30.34L55.55-30.34Q56.26-32.13 56.26-33.92L56.26-33.92L56.26-33.92Q56.26-36.03 55.26-37.73L55.26-37.73L55.26-37.73Q54.27-39.42 52.74-40.38L52.74-40.38L52.74-40.38Q51.20-41.34 49.66-41.34L49.66-41.34L49.66-41.34Q47.17-41.34 45.54-40.93L45.54-40.93L45.54-40.93Q43.90-40.51 41.92-39.68L41.92-39.68L41.92-39.68Q40.77-39.23 38.40-36.35L38.40-36.35L38.40-36.35Q37.63-35.46 37.50-35.39L37.50-35.39L37.18-35.26L37.18-35.26Q37.06-35.26 36.90-35.42L36.90-35.42L36.90-35.42Q36.74-35.58 36.61-35.65L36.61-35.65L36.61-35.65Q36.35-35.90 36.03-36.06L36.03-36.06L36.03-36.06Q35.71-36.22 35.52-36.42L35.52-36.42L35.52-36.42Q35.33-36.67 35.30-36.80L35.30-36.80L35.30-36.80Q35.26-36.93 35.46-37.25L35.46-37.25L35.46-37.25Q36.61-38.85 38.59-40.83L38.59-40.83L38.59-40.83Q39.36-41.60 41.44-42.88L41.44-42.88L41.44-42.88Q43.52-44.16 45.79-45.12L45.79-45.12L45.79-45.12Q48.06-46.08 49.66-46.08L49.66-46.08Z" fill="#542b55"></path></g></g><style>text {
  font-size: 64px;
  font-family: Arial Black;
  dominant-baseline: central;
  text-anchor: middle;
}</style></svg>