<svg width="107.05000610351563px" height="118.39999999999999px" xmlns="http://www.w3.org/2000/svg" viewBox="196.4749969482422 15.800000000000004 107.05000610351563 118.39999999999999" style="background: rgba(181, 204, 241, 0);" preserveAspectRatio="xMidYMid"><defs><filter id="editing-hover" x="-100%" y="-100%" width="300%" height="300%"><feFlood flood-color="#a497c1" result="flood"></feFlood><feComposite operator="in" in2="SourceAlpha" in="flood" result="shadow"></feComposite><feOffset dx="-4" dy="-4" in="SourceGraphic" result="offset-1"></feOffset><feOffset dx="4" dy="4" in="shadow" result="offset-2"></feOffset><feMerge><feMergeNode in="offset-2"></feMergeNode><feMergeNode in="offset-1"></feMergeNode></feMerge></filter></defs><g filter="url(#editing-hover)"><g transform="translate(217.47725248336792, 98.13499641418457)"><path d="M18.50-44.80L18.50-44.80Q19.33-45.06 20.10-45.06L20.10-45.06L20.10-45.06Q20.80-45.06 21.18-44.83L21.18-44.83L21.18-44.83Q21.57-44.61 21.57-44.22L21.57-44.22L21.57-44.22Q21.57-42.05 21.44-38.85L21.44-38.85L21.38-36.54L20.99-30.66L20.99-26.18L21.18-22.27L21.18-22.27Q21.31-20.22 21.31-16.64L21.31-16.64L21.31-16.64Q21.38-15.94 21.38-13.50L21.38-13.50L21.38-13.50Q21.38-7.10 21.82-4.93L21.82-4.93L21.82-4.93Q29.44-4.61 29.44-4.03L29.44-4.03L29.63-1.28L29.63-1.28Q29.76 0 28.22 0L28.22 0L28.22 0Q25.54 0 23.36-0.26L23.36-0.26L23.36-0.26Q22.27-0.38 19.78-0.51L19.78-0.51L19.78-0.51Q16.70-0.32 11.52-0.13L11.52-0.13L9.02-0.19L9.02-0.19Q6.78-0.19 3.97 0L3.97 0L3.97 0Q3.33 0 3.01-1.86L3.01-1.86L3.01-1.86Q3.01-1.98 2.98-2.11L2.98-2.11L2.98-2.11Q2.94-2.24 3.01-2.43L3.01-2.43L3.01-2.43Q3.01-3.84 3.78-4.03L3.78-4.03L3.78-4.03Q7.68-4.54 10.88-5.31L10.88-5.31L10.88-5.31Q14.02-5.25 14.02-6.72L14.02-6.72L14.02-6.72Q14.08-7.74 14.08-9.47L14.08-9.47L14.08-9.47Q14.08-11.52 14.02-13.12L14.02-13.12L14.02-18.88L14.02-18.88Q14.08-22.02 13.89-24.90L13.89-24.90L13.82-28.10L13.89-31.36L14.08-37.57L6.53-35.78L6.53-35.78Q4.48-35.33 4.10-35.33L4.10-35.33L4.10-35.33Q3.39-35.33 3.39-35.65L3.39-35.65L3.39-35.65Q3.20-35.97 3.20-36.42L3.20-36.42L3.20-36.42Q3.14-38.91 3.33-39.68L3.33-39.68L3.33-39.68Q3.58-40.32 4.99-40.90L4.99-40.90L4.99-40.90Q11.26-41.22 18.50-44.80L18.50-44.80ZM62.02-16.90L62.02-16.90Q62.02-16.77 62.05-16.70L62.05-16.70L62.05-16.70Q62.08-16.64 62.08-16.58L62.08-16.58L62.08-16.58Q62.08-16.26 61.89-16.06L61.89-16.06L61.89-16.06Q61.70-15.87 61.44-15.87L61.44-15.87L61.12-15.87L61.12-15.87Q60.80-15.87 60.26-15.81L60.26-15.81L60.26-15.81Q59.71-15.74 58.88-15.74L58.88-15.74L58.88-15.74Q58.11-15.74 57.92-15.36L57.92-15.36L57.92-15.36Q57.73-14.98 57.73-14.14L57.73-14.14L57.73-13.82L57.66-14.78L57.66-14.78Q57.60-14.78 57.50-9.66L57.50-9.66L57.50-9.66Q57.41-4.54 57.41-2.24L57.41-2.24L57.41-1.60L57.41-1.60Q57.41-0.70 56.74-0.51L56.74-0.51L56.74-0.51Q56.06-0.32 55.39-0.35L55.39-0.35L55.39-0.35Q54.72-0.38 54.53-0.38L54.53-0.38L54.53-0.38Q54.02-0.38 53.89-0.74L53.89-0.74L53.89-0.74Q53.76-1.09 53.76-2.69L53.76-2.69L53.76-5.76L53.76-5.76Q53.82-7.30 53.95-8.26L53.95-8.26L53.95-8.26Q54.08-10.18 54.08-14.02L54.08-14.02L54.08-14.02Q54.08-15.04 53.73-15.39L53.73-15.39L53.73-15.39Q53.38-15.74 52.67-15.74L52.67-15.74L51.01-15.68L51.01-15.68Q48.06-15.42 45.82-15.42L45.82-15.42L45.82-15.42Q44.80-15.42 44.42-15.49L44.42-15.49L42.88-15.55L42.88-15.55Q40.26-15.55 37.82-15.36L37.82-15.36L35.33-15.30L35.33-15.30Q34.37-15.30 34.11-15.71L34.11-15.71L34.11-15.71Q33.86-16.13 33.86-16.90L33.86-16.90L33.86-16.90Q33.86-17.98 34.02-18.40L34.02-18.40L34.02-18.40Q34.18-18.82 34.94-19.78L34.94-19.78L34.94-19.78Q36.10-21.18 37.63-23.49L37.63-23.49L37.63-23.49Q38.40-24.64 40.13-26.88L40.13-26.88L40.13-26.88Q42.50-29.70 46.27-34.82L46.27-34.82L46.27-34.82Q48.64-38.14 50.02-40.19L50.02-40.19L50.02-40.19Q51.39-42.24 52.16-43.33L52.16-43.33L53.31-45.06L53.31-45.06Q54.08-46.14 55.04-46.14L55.04-46.14L55.49-46.14L55.49-46.14Q55.81-46.14 56.06-46.27L56.06-46.27L56.06-46.27Q56.58-46.21 57.22-46.14L57.22-46.14L57.22-46.14Q57.86-46.08 58.05-45.76L58.05-45.76L58.05-45.76Q58.24-45.44 58.24-44.48L58.24-44.48L58.24-44.48Q58.24-43.71 58.11-41.02L58.11-41.02L58.11-41.02Q57.79-33.66 57.79-21.12L57.79-21.12L57.79-21.12Q57.79-19.71 57.98-19.30L57.98-19.30L57.98-19.30Q58.18-18.88 58.69-18.88L58.69-18.88L58.69-18.88Q58.94-18.88 59.87-18.98L59.87-18.98L59.87-18.98Q60.80-19.07 61.44-19.07L61.44-19.07L61.44-19.07Q61.76-19.07 61.86-18.75L61.86-18.75L61.86-18.75Q61.95-18.43 61.95-17.79L61.95-17.79L61.95-17.79Q61.95-17.15 62.02-16.90L62.02-16.90ZM54.27-39.94L54.27-39.94Q54.27-40.51 54.37-41.12L54.37-41.12L54.37-41.12Q54.46-41.73 54.46-42.30L54.46-42.30L54.40-42.43L54.40-42.50L54.40-42.50Q54.21-42.50 52.22-39.23L52.22-39.23L50.75-36.86L46.53-30.98L46.53-30.98Q44.74-28.48 42.18-25.28L42.18-25.28L42.18-25.28Q42.18-25.28 41.22-24.13L41.22-24.13L41.22-24.13Q40-22.21 38.21-20.61L38.21-20.61L38.21-20.61Q37.57-20.03 37.34-19.68L37.34-19.68L37.34-19.68Q37.12-19.33 37.12-18.75L37.12-18.75L37.12-18.75Q37.12-18.30 37.44-18.30L37.44-18.30L37.44-18.30Q37.63-18.30 37.98-18.43L37.98-18.43L37.98-18.43Q38.34-18.56 38.98-18.56L38.98-18.56L38.98-18.56Q39.87-18.56 40.38-18.50L40.38-18.50L42.24-18.43L42.24-18.43Q42.69-18.43 44.54-18.53L44.54-18.53L44.54-18.53Q46.40-18.62 49.02-18.62L49.02-18.62L52.35-18.62L52.35-18.62Q53.18-18.62 53.50-19.17L53.50-19.17L53.50-19.17Q53.82-19.71 53.92-21.12L53.92-21.12L53.92-21.12Q54.02-22.53 54.02-25.92L54.02-25.92L54.02-28.80L54.14-32L54.27-39.94Z" fill="#542b55"></path></g></g><style>text {
  font-size: 64px;
  font-family: Arial Black;
  dominant-baseline: central;
  text-anchor: middle;
}</style></svg>