<svg width="107.05000610351563px" height="118.39999999999999px" xmlns="http://www.w3.org/2000/svg" viewBox="196.4749969482422 15.800000000000004 107.05000610351563 118.39999999999999" style="background: rgba(181, 204, 241, 0);" preserveAspectRatio="xMidYMid"><defs><filter id="editing-hover" x="-100%" y="-100%" width="300%" height="300%"><feFlood flood-color="#a497c1" result="flood"></feFlood><feComposite operator="in" in2="SourceAlpha" in="flood" result="shadow"></feComposite><feOffset dx="-4" dy="-4" in="SourceGraphic" result="offset-1"></feOffset><feOffset dx="4" dy="4" in="shadow" result="offset-2"></feOffset><feMerge><feMergeNode in="offset-2"></feMergeNode><feMergeNode in="offset-1"></feMergeNode></feMerge></filter></defs><g filter="url(#editing-hover)"><g transform="translate(217.36568403244019, 99.3849983215332)"><path d="M18.50-44.80L18.50-44.80Q19.33-45.06 20.10-45.06L20.10-45.06L20.10-45.06Q20.80-45.06 21.18-44.83L21.18-44.83L21.18-44.83Q21.57-44.61 21.57-44.22L21.57-44.22L21.57-44.22Q21.57-42.05 21.44-38.85L21.44-38.85L21.38-36.54L20.99-30.66L20.99-26.18L21.18-22.27L21.18-22.27Q21.31-20.22 21.31-16.64L21.31-16.64L21.31-16.64Q21.38-15.94 21.38-13.50L21.38-13.50L21.38-13.50Q21.38-7.10 21.82-4.93L21.82-4.93L21.82-4.93Q29.44-4.61 29.44-4.03L29.44-4.03L29.63-1.28L29.63-1.28Q29.76 0 28.22 0L28.22 0L28.22 0Q25.54 0 23.36-0.26L23.36-0.26L23.36-0.26Q22.27-0.38 19.78-0.51L19.78-0.51L19.78-0.51Q16.70-0.32 11.52-0.13L11.52-0.13L9.02-0.19L9.02-0.19Q6.78-0.19 3.97 0L3.97 0L3.97 0Q3.33 0 3.01-1.86L3.01-1.86L3.01-1.86Q3.01-1.98 2.98-2.11L2.98-2.11L2.98-2.11Q2.94-2.24 3.01-2.43L3.01-2.43L3.01-2.43Q3.01-3.84 3.78-4.03L3.78-4.03L3.78-4.03Q7.68-4.54 10.88-5.31L10.88-5.31L10.88-5.31Q14.02-5.25 14.02-6.72L14.02-6.72L14.02-6.72Q14.08-7.74 14.08-9.47L14.08-9.47L14.08-9.47Q14.08-11.52 14.02-13.12L14.02-13.12L14.02-18.88L14.02-18.88Q14.08-22.02 13.89-24.90L13.89-24.90L13.82-28.10L13.89-31.36L14.08-37.57L6.53-35.78L6.53-35.78Q4.48-35.33 4.10-35.33L4.10-35.33L4.10-35.33Q3.39-35.33 3.39-35.65L3.39-35.65L3.39-35.65Q3.20-35.97 3.20-36.42L3.20-36.42L3.20-36.42Q3.14-38.91 3.33-39.68L3.33-39.68L3.33-39.68Q3.58-40.32 4.99-40.90L4.99-40.90L4.99-40.90Q11.26-41.22 18.50-44.80L18.50-44.80ZM39.23-45.89L39.23-45.89Q40.77-45.89 44.10-46.02L44.10-46.02L44.10-46.02Q46.40-46.14 47.36-46.14L47.36-46.14L47.36-46.14Q48.13-46.21 50.30-46.21L50.30-46.21L55.87-46.14L55.87-46.14Q57.28-46.08 59.46-46.08L59.46-46.08L59.46-46.08Q60.74-46.08 61.18-45.70L61.18-45.70L61.18-45.70Q61.63-45.31 61.63-44.61L61.63-44.61L61.57-43.52L61.44-40.58L61.31-37.31L61.31-37.31Q61.31-35.97 59.39-35.97L59.39-35.97L59.39-35.97Q58.82-35.97 57.54-36.10L57.54-36.10L57.54-36.10Q57.15-36.16 55.68-36.16L55.68-36.16L55.68-36.16Q53.44-36.16 48.32-36.03L48.32-36.03L43.65-35.90L43.65-35.90Q41.86-35.90 41.28-35.30L41.28-35.30L41.28-35.30Q40.70-34.69 40.70-33.54L40.70-33.54L40.58-29.38L40.58-29.38Q40.58-27.84 40.51-27.39L40.51-27.39L40.51-24.77L40.51-24.77Q42.18-26.30 43.26-26.82L43.26-26.82L43.26-26.82Q46.66-28.54 50.69-28.74L50.69-28.74L50.69-28.74Q55.55-28.48 58.40-26.24L58.40-26.24L58.40-26.24Q61.25-24 62.02-20.10L62.02-20.10L62.02-20.10Q62.40-16.90 62.27-15.49L62.27-15.49L62.27-15.49Q62.21-14.40 61.89-12.93L61.89-12.93L61.89-12.93Q61.82-12.48 61.06-8.19L61.06-8.19L61.06-8.19Q60.29-3.90 56.83-0.67L56.83-0.67L56.83-0.67Q53.38 2.56 47.94 2.56L47.94 2.56L47.94 2.56Q39.42 2.56 37.02-2.14L37.02-2.14L37.02-2.14Q34.62-6.85 34.62-10.11L34.62-10.11L34.62-10.11Q34.62-13.38 34.56-13.82L34.56-13.82L34.56-13.82Q34.43-14.46 34.43-15.49L34.43-15.49L34.43-15.49Q34.43-17.28 35.26-17.28L35.26-17.28L39.49-17.34L39.49-17.34Q40.38-17.34 40.58-17.02L40.58-17.02L40.58-17.02Q40.77-16.70 40.77-15.81L40.77-15.81L40.77-15.81Q40.77-15.04 40.83-14.59L40.83-14.59L40.83-14.59Q41.02-13.12 42.56-12.06L42.56-12.06L42.56-12.06Q44.10-11.01 46.78-11.01L46.78-11.01L46.78-11.01Q48.13-11.01 49.38-11.62L49.38-11.62L49.38-11.62Q50.62-12.22 52.10-13.44L52.10-13.44L52.10-13.44Q53.44-14.66 53.76-15.68L53.76-15.68L53.76-15.68Q54.08-16.70 54.08-18.94L54.08-18.94L54.08-18.94Q53.57-23.04 49.98-23.30L49.98-23.30L49.98-23.30Q47.10-23.10 45.57-22.59L45.57-22.59L45.57-22.59Q44.03-22.08 42.88-21.12L42.88-21.12L42.88-21.12Q41.66-20.10 40.96-20.16L40.96-20.16L35.07-20.22L35.07-20.22Q34.43-20.22 34.43-22.34L34.43-22.34L34.43-22.34Q34.43-22.78 34.56-24.19L34.56-24.19L34.56-24.19Q34.75-25.92 34.75-26.11L34.75-26.11L34.75-26.11Q34.88-27.65 34.50-36.03L34.50-36.03L34.50-36.03Q34.43-37.89 34.37-39.74L34.37-39.74L34.37-39.74Q34.30-41.60 34.30-43.14L34.30-43.14L34.30-43.14Q34.30-44.80 35.10-45.41L35.10-45.41L35.10-45.41Q35.90-46.02 37.25-46.02L37.25-46.02L37.25-46.02Q37.82-46.02 38.30-45.95L38.30-45.95L38.30-45.95Q38.78-45.89 39.23-45.89L39.23-45.89Z" fill="#542b55"></path></g></g><style>text {
  font-size: 64px;
  font-family: Arial Black;
  dominant-baseline: central;
  text-anchor: middle;
}</style></svg>