<svg width="107.05000610351563px" height="118.39999999999999px" xmlns="http://www.w3.org/2000/svg" viewBox="196.4749969482422 15.800000000000004 107.05000610351563 118.39999999999999" style="background: rgba(181, 204, 241, 0);" preserveAspectRatio="xMidYMid"><defs><filter id="editing-hover" x="-100%" y="-100%" width="300%" height="300%"><feFlood flood-color="#a497c1" result="flood"></feFlood><feComposite operator="in" in2="SourceAlpha" in="flood" result="shadow"></feComposite><feOffset dx="-4" dy="-4" in="SourceGraphic" result="offset-1"></feOffset><feOffset dx="4" dy="4" in="shadow" result="offset-2"></feOffset><feMerge><feMergeNode in="offset-2"></feMergeNode><feMergeNode in="offset-1"></feMergeNode></feMerge></filter></defs><g filter="url(#editing-hover)"><g transform="translate(217.0622534751892, 98.58499908447266)"><path d="M18.50-44.80L18.50-44.80Q19.33-45.06 20.10-45.06L20.10-45.06L20.10-45.06Q20.80-45.06 21.18-44.83L21.18-44.83L21.18-44.83Q21.57-44.61 21.57-44.22L21.57-44.22L21.57-44.22Q21.57-42.05 21.44-38.85L21.44-38.85L21.38-36.54L20.99-30.66L20.99-26.18L21.18-22.27L21.18-22.27Q21.31-20.22 21.31-16.64L21.31-16.64L21.31-16.64Q21.38-15.94 21.38-13.50L21.38-13.50L21.38-13.50Q21.38-7.10 21.82-4.93L21.82-4.93L21.82-4.93Q29.44-4.61 29.44-4.03L29.44-4.03L29.63-1.28L29.63-1.28Q29.76 0 28.22 0L28.22 0L28.22 0Q25.54 0 23.36-0.26L23.36-0.26L23.36-0.26Q22.27-0.38 19.78-0.51L19.78-0.51L19.78-0.51Q16.70-0.32 11.52-0.13L11.52-0.13L9.02-0.19L9.02-0.19Q6.78-0.19 3.97 0L3.97 0L3.97 0Q3.33 0 3.01-1.86L3.01-1.86L3.01-1.86Q3.01-1.98 2.98-2.11L2.98-2.11L2.98-2.11Q2.94-2.24 3.01-2.43L3.01-2.43L3.01-2.43Q3.01-3.84 3.78-4.03L3.78-4.03L3.78-4.03Q7.68-4.54 10.88-5.31L10.88-5.31L10.88-5.31Q14.02-5.25 14.02-6.72L14.02-6.72L14.02-6.72Q14.08-7.74 14.08-9.47L14.08-9.47L14.08-9.47Q14.08-11.52 14.02-13.12L14.02-13.12L14.02-18.88L14.02-18.88Q14.08-22.02 13.89-24.90L13.89-24.90L13.82-28.10L13.89-31.36L14.08-37.57L6.53-35.78L6.53-35.78Q4.48-35.33 4.10-35.33L4.10-35.33L4.10-35.33Q3.39-35.33 3.39-35.65L3.39-35.65L3.39-35.65Q3.20-35.97 3.20-36.42L3.20-36.42L3.20-36.42Q3.14-38.91 3.33-39.68L3.33-39.68L3.33-39.68Q3.58-40.32 4.99-40.90L4.99-40.90L4.99-40.90Q11.26-41.22 18.50-44.80L18.50-44.80ZM51.39-24.45L51.39-24.45Q54.14-24.45 56.80-23.26L56.80-23.26L56.80-23.26Q59.46-22.08 61.18-19.78L61.18-19.78L61.18-19.78Q62.91-17.47 62.91-14.21L62.91-14.21L62.91-14.21Q62.91-6.91 60.29-3.30L60.29-3.30L60.29-3.30Q57.66 0.32 54.43 1.22L54.43 1.22L54.43 1.22Q51.20 2.11 47.36 2.11L47.36 2.11L47.36 2.11Q44.54 2.11 41.18-0.32L41.18-0.32L41.18-0.32Q37.82-2.75 35.42-8.10L35.42-8.10L35.42-8.10Q33.02-13.44 33.02-21.57L33.02-21.57L33.02-21.57Q33.02-29.70 35.58-34.94L35.58-34.94L35.58-34.94Q38.14-40.19 41.60-42.53L41.60-42.53L41.60-42.53Q45.06-44.86 47.81-44.86L47.81-44.86L47.81-44.86Q53.18-44.86 56.26-41.38L56.26-41.38L56.26-41.38Q59.33-37.89 60.74-34.62L60.74-34.62L60.74-34.62Q60.99-33.98 60.99-33.73L60.99-33.73L60.99-33.73Q60.99-32.51 59.33-31.81L59.33-31.81L59.33-31.81Q58.30-31.30 52.74-27.20L52.74-27.20L52.74-27.20Q52.29-26.94 51.84-26.94L51.84-26.94L51.84-26.94Q51.39-26.94 51.17-27.30L51.17-27.30L51.17-27.30Q50.94-27.65 50.94-28.03L50.94-28.03L50.94-28.03Q50.82-28.22 50.56-28.86L50.56-28.86L50.56-28.86Q50.30-29.50 49.47-29.98L49.47-29.98L49.47-29.98Q48.64-30.46 47.10-30.46L47.10-30.46L47.10-30.46Q45.89-30.46 45.09-29.09L45.09-29.09L45.09-29.09Q44.29-27.71 44.03-25.73L44.03-25.73L44.03-25.73Q43.71-23.36 43.71-21.06L43.71-21.06L43.71-21.06Q44.35-22.02 45.50-22.72L45.50-22.72L45.50-22.72Q48.19-24.45 51.39-24.45L51.39-24.45ZM48.13-8.77L48.13-8.77Q49.66-8.77 50.53-10.62L50.53-10.62L50.53-10.62Q51.39-12.48 51.39-14.46L51.39-14.46L51.39-14.46Q51.39-15.87 50.24-16.77L50.24-16.77L50.24-16.77Q49.09-17.66 48.19-17.66L48.19-17.66L48.19-17.66Q46.72-17.66 45.60-16.38L45.60-16.38L45.60-16.38Q44.48-15.10 44.48-13.44L44.48-13.44L44.48-13.44Q44.48-11.65 45.44-10.21L45.44-10.21L45.44-10.21Q46.40-8.77 48.13-8.77L48.13-8.77Z" fill="#542b55"></path></g></g><style>text {
  font-size: 64px;
  font-family: Arial Black;
  dominant-baseline: central;
  text-anchor: middle;
}</style></svg>