<svg width="107.51997375488281px" height="118.39999999999999px" xmlns="http://www.w3.org/2000/svg" viewBox="196.2400131225586 15.800000000000004 107.51997375488281 118.39999999999999" style="background: rgba(181, 204, 241, 0);" preserveAspectRatio="xMidYMid"><defs><filter id="editing-hover" x="-100%" y="-100%" width="300%" height="300%"><feFlood flood-color="#a497c1" result="flood"></feFlood><feComposite operator="in" in2="SourceAlpha" in="flood" result="shadow"></feComposite><feOffset dx="-4" dy="-4" in="SourceGraphic" result="offset-1"></feOffset><feOffset dx="4" dy="4" in="shadow" result="offset-2"></feOffset><feMerge><feMergeNode in="offset-2"></feMergeNode><feMergeNode in="offset-1"></feMergeNode></feMerge></filter></defs><g filter="url(#editing-hover)"><g transform="translate(216.70223569869995, 98.10499954223633)"><path d="M18.50-44.80L18.50-44.80Q19.33-45.06 20.10-45.06L20.10-45.06L20.10-45.06Q20.80-45.06 21.18-44.83L21.18-44.83L21.18-44.83Q21.57-44.61 21.57-44.22L21.57-44.22L21.57-44.22Q21.57-42.05 21.44-38.85L21.44-38.85L21.38-36.54L20.99-30.66L20.99-26.18L21.18-22.27L21.18-22.27Q21.31-20.22 21.31-16.64L21.31-16.64L21.31-16.64Q21.38-15.94 21.38-13.50L21.38-13.50L21.38-13.50Q21.38-7.10 21.82-4.93L21.82-4.93L21.82-4.93Q29.44-4.61 29.44-4.03L29.44-4.03L29.63-1.28L29.63-1.28Q29.76 0 28.22 0L28.22 0L28.22 0Q25.54 0 23.36-0.26L23.36-0.26L23.36-0.26Q22.27-0.38 19.78-0.51L19.78-0.51L19.78-0.51Q16.70-0.32 11.52-0.13L11.52-0.13L9.02-0.19L9.02-0.19Q6.78-0.19 3.97 0L3.97 0L3.97 0Q3.33 0 3.01-1.86L3.01-1.86L3.01-1.86Q3.01-1.98 2.98-2.11L2.98-2.11L2.98-2.11Q2.94-2.24 3.01-2.43L3.01-2.43L3.01-2.43Q3.01-3.84 3.78-4.03L3.78-4.03L3.78-4.03Q7.68-4.54 10.88-5.31L10.88-5.31L10.88-5.31Q14.02-5.25 14.02-6.72L14.02-6.72L14.02-6.72Q14.08-7.74 14.08-9.47L14.08-9.47L14.08-9.47Q14.08-11.52 14.02-13.12L14.02-13.12L14.02-18.88L14.02-18.88Q14.08-22.02 13.89-24.90L13.89-24.90L13.82-28.10L13.89-31.36L14.08-37.57L6.53-35.78L6.53-35.78Q4.48-35.33 4.10-35.33L4.10-35.33L4.10-35.33Q3.39-35.33 3.39-35.65L3.39-35.65L3.39-35.65Q3.20-35.97 3.20-36.42L3.20-36.42L3.20-36.42Q3.14-38.91 3.33-39.68L3.33-39.68L3.33-39.68Q3.58-40.32 4.99-40.90L4.99-40.90L4.99-40.90Q11.26-41.22 18.50-44.80L18.50-44.80ZM63.10-43.84L63.10-43.84Q63.74-43.84 63.87-43.23L63.87-43.23L63.87-43.23Q64-42.62 63.97-41.86L63.97-41.86L63.97-41.86Q63.94-41.09 63.94-40.70L63.94-40.70L63.94-40.70Q63.94-39.68 63.46-38.75L63.46-38.75L63.46-38.75Q62.98-37.82 61.50-35.65L61.50-35.65L61.50-35.65Q60.10-33.86 54.98-26.43L54.98-26.43L59.58-26.43L59.58-26.43Q60.86-26.56 61.18-26.14L61.18-26.14L61.18-26.14Q61.50-25.73 61.50-24.64L61.50-24.64L61.50-19.84L61.50-19.84Q61.50-19.07 61.02-18.78L61.02-18.78L61.02-18.78Q60.54-18.50 59.14-18.50L59.14-18.50L55.94-18.50L53.63-18.69L53.63-18.69Q52.74-18.82 51.71-18.82L51.71-18.82L49.66-18.75L49.66-18.75Q47.55-15.62 42.82-7.55L42.82-7.55L40.51-3.71L40.51-3.71Q40.26-3.20 39.90-2.66L39.90-2.66L39.90-2.66Q39.55-2.11 39.17-1.47L39.17-1.47L39.17-1.47Q37.76 0.90 37.44 1.09L37.44 1.09L37.44 1.09Q37.38 1.15 37.18 1.15L37.18 1.15L37.18 1.15Q36.99 1.15 36.54 0.70L36.54 0.70L36.54 0.70Q36.10 0.26 35.71 0L35.71 0L35.71 0Q35.26-0.26 35.26-0.70L35.26-0.70L35.26-0.70Q35.26-1.09 36.29-2.62L36.29-2.62L36.29-2.62Q36.48-2.88 40.38-9.47L40.38-9.47L42.24-12.54L42.24-12.54Q42.94-14.02 46.02-18.75L46.02-18.75L45.18-18.75L45.18-18.75Q44.03-18.75 42.14-18.62L42.14-18.62L42.14-18.62Q40.26-18.50 39.68-18.37L39.68-18.37L39.68-18.37Q39.10-18.37 38.98-18.72L38.98-18.72L38.98-18.72Q38.85-19.07 38.85-19.84L38.85-19.84L38.85-24.32L38.85-24.32Q38.85-25.41 39.10-25.92L39.10-25.92L39.10-25.92Q39.36-26.43 40.06-26.43L40.06-26.43L50.94-26.43L50.94-26.43Q52.03-27.97 53.50-30.40L53.50-30.40L53.50-30.40Q55.23-32.90 57.31-36.29L57.31-36.29L57.31-36.29Q59.39-39.68 59.39-39.94L59.39-39.94L59.39-39.94Q59.39-40.13 59.14-40.13L59.14-40.13L59.14-40.13Q58.94-40.13 58.62-40.03L58.62-40.03L58.62-40.03Q58.30-39.94 57.92-39.94L57.92-39.94L57.92-39.94Q57.47-39.94 56.35-40.03L56.35-40.03L56.35-40.03Q55.23-40.13 53.38-40.13L53.38-40.13L53.38-40.13Q51.52-40.13 45.15-39.52L45.15-39.52L45.15-39.52Q38.78-38.91 37.63-38.72L37.63-38.72L37.63-38.72Q36.99-38.59 36.74-38.59L36.74-38.59L36.74-38.59Q35.65-38.59 35.65-39.62L35.65-39.62L35.71-41.22L35.71-41.22Q35.71-41.86 35.65-42.11L35.65-42.11L35.65-42.24L35.65-42.24Q35.65-42.82 35.97-43.04L35.97-43.04L35.97-43.04Q36.29-43.26 36.86-43.33L36.86-43.33L38.53-43.39L38.53-43.39Q42.75-43.58 43.52-43.58L43.52-43.58L43.52-43.58Q44.48-43.58 47.42-43.71L47.42-43.71L47.42-43.71Q50.62-43.84 52.10-43.84L52.10-43.84L52.10-43.84Q53.38-43.84 53.82-43.78L53.82-43.78L53.82-43.78Q55.23-43.65 56.58-43.65L56.58-43.65L56.58-43.65Q58.75-43.65 61.44-43.78L61.44-43.78L61.44-43.78Q62.21-43.84 63.10-43.84L63.10-43.84Z" fill="#542b55"></path></g></g><style>text {
  font-size: 64px;
  font-family: Arial Black;
  dominant-baseline: central;
  text-anchor: middle;
}</style></svg>