<svg width="107.05000610351563px" height="118.39999999999999px" xmlns="http://www.w3.org/2000/svg" viewBox="196.4749969482422 15.800000000000004 107.05000610351563 118.39999999999999" style="background: rgba(181, 204, 241, 0);" preserveAspectRatio="xMidYMid"><defs><filter id="editing-hover" x="-100%" y="-100%" width="300%" height="300%"><feFlood flood-color="#a497c1" result="flood"></feFlood><feComposite operator="in" in2="SourceAlpha" in="flood" result="shadow"></feComposite><feOffset dx="-4" dy="-4" in="SourceGraphic" result="offset-1"></feOffset><feOffset dx="4" dy="4" in="shadow" result="offset-2"></feOffset><feMerge><feMergeNode in="offset-2"></feMergeNode><feMergeNode in="offset-1"></feMergeNode></feMerge></filter></defs><g filter="url(#editing-hover)"><g transform="translate(217.1572527885437, 98.61499786376953)"><path d="M18.50-44.80L18.50-44.80Q19.33-45.06 20.10-45.06L20.10-45.06L20.10-45.06Q20.80-45.06 21.18-44.83L21.18-44.83L21.18-44.83Q21.57-44.61 21.57-44.22L21.57-44.22L21.57-44.22Q21.57-42.05 21.44-38.85L21.44-38.85L21.38-36.54L20.99-30.66L20.99-26.18L21.18-22.27L21.18-22.27Q21.31-20.22 21.31-16.64L21.31-16.64L21.31-16.64Q21.38-15.94 21.38-13.50L21.38-13.50L21.38-13.50Q21.38-7.10 21.82-4.93L21.82-4.93L21.82-4.93Q29.44-4.61 29.44-4.03L29.44-4.03L29.63-1.28L29.63-1.28Q29.76 0 28.22 0L28.22 0L28.22 0Q25.54 0 23.36-0.26L23.36-0.26L23.36-0.26Q22.27-0.38 19.78-0.51L19.78-0.51L19.78-0.51Q16.70-0.32 11.52-0.13L11.52-0.13L9.02-0.19L9.02-0.19Q6.78-0.19 3.97 0L3.97 0L3.97 0Q3.33 0 3.01-1.86L3.01-1.86L3.01-1.86Q3.01-1.98 2.98-2.11L2.98-2.11L2.98-2.11Q2.94-2.24 3.01-2.43L3.01-2.43L3.01-2.43Q3.01-3.84 3.78-4.03L3.78-4.03L3.78-4.03Q7.68-4.54 10.88-5.31L10.88-5.31L10.88-5.31Q14.02-5.25 14.02-6.72L14.02-6.72L14.02-6.72Q14.08-7.74 14.08-9.47L14.08-9.47L14.08-9.47Q14.08-11.52 14.02-13.12L14.02-13.12L14.02-18.88L14.02-18.88Q14.08-22.02 13.89-24.90L13.89-24.90L13.82-28.10L13.89-31.36L14.08-37.57L6.53-35.78L6.53-35.78Q4.48-35.33 4.10-35.33L4.10-35.33L4.10-35.33Q3.39-35.33 3.39-35.65L3.39-35.65L3.39-35.65Q3.20-35.97 3.20-36.42L3.20-36.42L3.20-36.42Q3.14-38.91 3.33-39.68L3.33-39.68L3.33-39.68Q3.58-40.32 4.99-40.90L4.99-40.90L4.99-40.90Q11.26-41.22 18.50-44.80L18.50-44.80ZM55.30-25.09L55.30-25.09Q57.28-24.06 59.01-22.27L59.01-22.27L59.01-22.27Q62.72-18.30 62.72-12.93L62.72-12.93L62.72-12.93Q62.72-8.83 60.70-5.82L60.70-5.82L60.70-5.82Q58.69-2.82 55.23-1.22L55.23-1.22L55.23-1.22Q51.78 0.38 47.42 0.38L47.42 0.38L47.42 0.38Q40.38 0.38 36.83-2.78L36.83-2.78L36.83-2.78Q33.28-5.95 33.28-11.46L33.28-11.46L33.28-11.46Q33.28-16.90 39.36-21.95L39.36-21.95L39.36-21.95Q42.05-24.06 45.50-25.60L45.50-25.60L45.50-25.60Q44.86-26.24 44.86-26.24L44.86-26.24L44.86-26.24Q44.67-26.56 44.10-27.01L44.10-27.01L44.10-27.01Q43.52-27.46 43.14-27.84L43.14-27.84L43.14-27.84Q42.75-28.10 41.31-28.99L41.31-28.99L41.31-28.99Q39.87-29.89 38.88-31.87L38.88-31.87L38.88-31.87Q37.89-33.86 37.89-36.99L37.89-36.99L37.89-36.99Q37.89-40.26 39.71-42.50L39.71-42.50L39.71-42.50Q41.54-44.74 44.19-45.79L44.19-45.79L44.19-45.79Q46.85-46.85 49.47-46.85L49.47-46.85L49.47-46.85Q51.58-46.85 54.14-45.95L54.14-45.95L54.14-45.95Q56.70-45.06 58.66-42.91L58.66-42.91L58.66-42.91Q60.61-40.77 60.61-37.18L60.61-37.18L60.61-37.18Q60.61-32.38 57.92-28.16L57.92-28.16L57.92-28.16Q56.90-26.37 55.30-25.09L55.30-25.09ZM41.09-38.08L41.09-38.08Q41.09-33.60 45.18-29.89L45.18-29.89L45.18-29.89Q46.98-28.29 49.41-27.20L49.41-27.20L49.41-27.20Q51.26-28.03 52.93-29.31L52.93-29.31L52.93-29.31Q56.45-32.19 56.45-35.33L56.45-35.33L56.45-35.33Q56.45-39.23 54.50-41.54L54.50-41.54L54.50-41.54Q52.54-43.84 48.96-43.84L48.96-43.84L48.96-43.84Q47.42-43.84 45.57-43.07L45.57-43.07L45.57-43.07Q43.71-42.30 42.40-40.96L42.40-40.96L42.40-40.96Q41.09-39.62 41.09-38.08L41.09-38.08ZM49.47-2.24L49.47-2.24Q52.16-2.24 54.43-3.94L54.43-3.94L54.43-3.94Q56.70-5.63 58.02-8.16L58.02-8.16L58.02-8.16Q59.33-10.69 59.33-12.93L59.33-12.93L59.33-12.93Q59.33-15.55 57.98-17.57L57.98-17.57L57.98-17.57Q56.64-19.58 54.59-20.99L54.59-20.99L54.59-20.99Q52.48-22.53 49.92-23.36L49.92-23.36L49.92-23.36Q46.27-21.95 43.39-20.10L43.39-20.10L43.39-20.10Q40.64-18.43 38.78-16.03L38.78-16.03L38.78-16.03Q36.93-13.63 36.93-10.88L36.93-10.88L36.93-10.88Q36.93-7.10 38.72-5.22L38.72-5.22L38.72-5.22Q40.51-3.33 43.14-2.78L43.14-2.78L43.14-2.78Q45.76-2.24 49.47-2.24L49.47-2.24Z" fill="#542b55"></path></g></g><style>text {
  font-size: 64px;
  font-family: Arial Black;
  dominant-baseline: central;
  text-anchor: middle;
}</style></svg>