<svg width="107.05000610351563px" height="118.39999999999999px" xmlns="http://www.w3.org/2000/svg" viewBox="196.4749969482422 15.800000000000004 107.05000610351563 118.39999999999999" style="background: rgba(181, 204, 241, 0);" preserveAspectRatio="xMidYMid"><defs><filter id="editing-hover" x="-100%" y="-100%" width="300%" height="300%"><feFlood flood-color="#a497c1" result="flood"></feFlood><feComposite operator="in" in2="SourceAlpha" in="flood" result="shadow"></feComposite><feOffset dx="-4" dy="-4" in="SourceGraphic" result="offset-1"></feOffset><feOffset dx="4" dy="4" in="shadow" result="offset-2"></feOffset><feMerge><feMergeNode in="offset-2"></feMergeNode><feMergeNode in="offset-1"></feMergeNode></feMerge></filter></defs><g filter="url(#editing-hover)"><g transform="translate(217.1872534751892, 98.96999740600586)"><path d="M18.50-44.80L18.50-44.80Q19.33-45.06 20.10-45.06L20.10-45.06L20.10-45.06Q20.80-45.06 21.18-44.83L21.18-44.83L21.18-44.83Q21.57-44.61 21.57-44.22L21.57-44.22L21.57-44.22Q21.57-42.05 21.44-38.85L21.44-38.85L21.38-36.54L20.99-30.66L20.99-26.18L21.18-22.27L21.18-22.27Q21.31-20.22 21.31-16.64L21.31-16.64L21.31-16.64Q21.38-15.94 21.38-13.50L21.38-13.50L21.38-13.50Q21.38-7.10 21.82-4.93L21.82-4.93L21.82-4.93Q29.44-4.61 29.44-4.03L29.44-4.03L29.63-1.28L29.63-1.28Q29.76 0 28.22 0L28.22 0L28.22 0Q25.54 0 23.36-0.26L23.36-0.26L23.36-0.26Q22.27-0.38 19.78-0.51L19.78-0.51L19.78-0.51Q16.70-0.32 11.52-0.13L11.52-0.13L9.02-0.19L9.02-0.19Q6.78-0.19 3.97 0L3.97 0L3.97 0Q3.33 0 3.01-1.86L3.01-1.86L3.01-1.86Q3.01-1.98 2.98-2.11L2.98-2.11L2.98-2.11Q2.94-2.24 3.01-2.43L3.01-2.43L3.01-2.43Q3.01-3.84 3.78-4.03L3.78-4.03L3.78-4.03Q7.68-4.54 10.88-5.31L10.88-5.31L10.88-5.31Q14.02-5.25 14.02-6.72L14.02-6.72L14.02-6.72Q14.08-7.74 14.08-9.47L14.08-9.47L14.08-9.47Q14.08-11.52 14.02-13.12L14.02-13.12L14.02-18.88L14.02-18.88Q14.08-22.02 13.89-24.90L13.89-24.90L13.82-28.10L13.89-31.36L14.08-37.57L6.53-35.78L6.53-35.78Q4.48-35.33 4.10-35.33L4.10-35.33L4.10-35.33Q3.39-35.33 3.39-35.65L3.39-35.65L3.39-35.65Q3.20-35.97 3.20-36.42L3.20-36.42L3.20-36.42Q3.14-38.91 3.33-39.68L3.33-39.68L3.33-39.68Q3.58-40.32 4.99-40.90L4.99-40.90L4.99-40.90Q11.26-41.22 18.50-44.80L18.50-44.80ZM48-45.89L48-45.89Q53.38-45.89 56.64-41.50L56.64-41.50L56.64-41.50Q59.90-37.12 61.28-31.62L61.28-31.62L61.28-31.62Q62.66-26.11 62.66-22.46L62.66-22.46L62.66-22.46Q62.66-11.58 60.16-7.30L60.16-7.30L60.16-7.30Q58.75-4.67 57.31-2.75L57.31-2.75L57.31-2.75Q55.87-0.83 53.54 0.61L53.54 0.61L53.54 0.61Q51.20 2.05 48.06 2.05L48.06 2.05L48.06 2.05Q44.93 2.05 42.56 0.70L42.56 0.70L42.56 0.70Q40.19-0.64 38.72-2.46L38.72-2.46L38.72-2.46Q37.25-4.29 35.71-6.85L35.71-6.85L35.71-6.85Q34.75-8.51 34.75-9.73L34.75-9.73L34.75-9.73Q34.75-10.69 35.33-11.17L35.33-11.17L35.33-11.17Q35.90-11.65 36.42-11.65L36.42-11.65L36.42-11.65Q36.93-11.65 37.70-11.74L37.70-11.74L37.70-11.74Q38.46-11.84 39.17-11.84L39.17-11.84L39.17-11.84Q39.94-11.84 40.45-11.46L40.45-11.46L40.45-11.46Q40.96-11.07 41.54-10.24L41.54-10.24L41.54-10.24Q42.56-8.83 43.90-8L43.90-8L43.90-8Q45.25-7.17 48.13-7.17L48.13-7.17L48.13-7.17Q50.62-7.17 52-8.86L52-8.86L52-8.86Q53.38-10.56 53.95-13.18L53.95-13.18L53.95-13.18Q54.66-15.81 54.53-19.26L54.53-19.26L54.53-19.26Q53.25-17.79 51.90-16.64L51.90-16.64L51.90-16.64Q48.77-14.02 46.85-14.02L46.85-14.02L46.85-14.02Q43.84-14.02 41.02-14.75L41.02-14.75L41.02-14.75Q38.21-15.49 35.78-18.46L35.78-18.46L35.78-18.46Q33.34-21.44 33.34-27.58L33.34-27.58L33.34-27.58Q33.34-34.30 35.87-38.40L35.87-38.40L35.87-38.40Q38.40-42.50 41.79-44.19L41.79-44.19L41.79-44.19Q45.18-45.89 48-45.89L48-45.89ZM53.38-27.52L53.38-27.52Q53.38-30.08 53.09-32L53.09-32L53.09-32Q52.80-33.92 51.23-35.62L51.23-35.62L51.23-35.62Q49.66-37.31 46.34-37.31L46.34-37.31L46.34-37.31Q44.86-37.31 43.30-36.38L43.30-36.38L43.30-36.38Q41.73-35.46 40.67-33.60L40.67-33.60L40.67-33.60Q39.62-31.74 39.62-29.12L39.62-29.12L39.62-29.12Q39.62-25.22 41.73-23.33L41.73-23.33L41.73-23.33Q43.84-21.44 46.46-21.44L46.46-21.44L46.46-21.44Q47.94-21.44 49.50-22.34L49.50-22.34L49.50-22.34Q51.07-23.23 52.16-24.67L52.16-24.67L52.16-24.67Q53.25-26.11 53.38-27.52L53.38-27.52Z" fill="#542b55"></path></g></g><style>text {
  font-size: 64px;
  font-family: Arial Black;
  dominant-baseline: central;
  text-anchor: middle;
}</style></svg>