<svg width="107.05000610351563px" height="118.39999999999999px" xmlns="http://www.w3.org/2000/svg" viewBox="196.4749969482422 15.800000000000004 107.05000610351563 118.39999999999999" style="background: rgba(181, 204, 241, 0);" preserveAspectRatio="xMidYMid"><defs><filter id="editing-hover" x="-100%" y="-100%" width="300%" height="300%"><feFlood flood-color="#a497c1" result="flood"></feFlood><feComposite operator="in" in2="SourceAlpha" in="flood" result="shadow"></feComposite><feOffset dx="-4" dy="-4" in="SourceGraphic" result="offset-1"></feOffset><feOffset dx="4" dy="4" in="shadow" result="offset-2"></feOffset><feMerge><feMergeNode in="offset-2"></feMergeNode><feMergeNode in="offset-1"></feMergeNode></feMerge></filter></defs><g filter="url(#editing-hover)"><g transform="translate(218.047758102417, 98.03999710083008)"><path d="M15.87-0.26L15.87-0.26Q9.92-0.58 8.32-1.41L8.32-1.41L8.32-1.41Q6.72-2.24 4.93-5.50L4.93-5.50L4.93-5.50Q3.20-8.70 2.50-11.58L2.50-11.58L2.50-11.58Q1.92-14.40 1.92-23.94L1.92-23.94L1.92-23.94Q1.92-29.50 2.50-33.66L2.50-33.66L2.50-33.66Q3.07-37.82 4.67-40.45L4.67-40.45L4.67-40.45Q6.53-43.33 9.34-44.67L9.34-44.67L9.34-44.67Q12.29-46.08 17.73-46.14L17.73-46.14L17.73-46.14Q24.77-45.12 27.01-41.15L27.01-41.15L27.01-41.15Q29.25-37.18 29.63-32.64L29.63-32.64L29.63-32.64Q30.02-28.16 30.02-22.21L30.02-22.21L30.02-22.21Q30.02-16.06 29.18-11.26L29.18-11.26L29.18-11.26Q28.42-6.21 24.93-3.23L24.93-3.23L24.93-3.23Q21.44-0.26 15.87-0.26L15.87-0.26ZM17.15-42.43L17.15-42.43Q15.30-42.43 12.86-41.09L12.86-41.09L12.86-41.09Q10.56-39.87 9.28-37.31L9.28-37.31L9.28-37.31Q8.13-35.01 8.13-32.32L8.13-32.32L8.13-32.32Q8.13-30.46 8.19-29.25L8.19-29.25L8.26-23.74L8.38-17.54L8.38-17.54Q8.58-12.29 10.37-10.11L10.37-10.11L10.37-10.11Q12.93-7.04 13.57-6.14L13.57-6.14L13.57-6.14Q14.91-4.35 17.92-4.35L17.92-4.35L17.92-4.35Q19.78-4.35 21.79-5.73L21.79-5.73L21.79-5.73Q23.81-7.10 25.28-9.66L25.28-9.66L25.28-9.66Q26.69-12.03 26.69-15.74L26.69-15.74L26.62-20.22L26.62-20.22Q26.56-21.06 26.56-22.34L26.56-22.34L26.56-22.34Q26.69-27.20 26.69-28.74L26.69-28.74L26.69-28.74Q26.69-32.51 26.43-34.37L26.43-34.37L26.43-34.37Q25.92-38.27 24.83-40.19L24.83-40.19L24.83-40.19Q23.68-42.24 21.50-42.43L21.50-42.43L21.50-42.43Q20.10-42.56 19.33-42.56L19.33-42.56L19.33-42.56Q18.69-42.56 17.15-42.43L17.15-42.43ZM17.98-26.62L17.98-26.62Q21.25-26.62 21.25-22.46L21.25-22.46L21.25-22.46Q21.25-21.31 20.22-20.51L20.22-20.51L20.22-20.51Q19.20-19.71 17.98-19.71L17.98-19.71L17.98-19.71Q16.70-19.71 15.78-20.67L15.78-20.67L15.78-20.67Q14.85-21.63 14.85-23.42L14.85-23.42L14.85-23.42Q14.85-25.34 15.71-25.98L15.71-25.98L15.71-25.98Q16.58-26.62 17.98-26.62L17.98-26.62ZM49.66-46.08L49.66-46.08Q52.61-46.08 54.91-44.67L54.91-44.67L54.91-44.67Q57.22-43.26 58.46-40.99L58.46-40.99L58.46-40.99Q59.71-38.72 59.71-36.22L59.71-36.22L59.71-36.22Q59.71-33.92 59.07-31.87L59.07-31.87L59.07-31.87Q58.43-29.82 57.73-28.58L57.73-28.58L57.73-28.58Q57.02-27.33 55.36-24.64L55.36-24.64L55.36-24.64Q54.21-22.72 49.38-16.35L49.38-16.35L49.38-16.35Q44.54-9.98 44.10-9.54L44.10-9.54L44.10-9.54Q43.78-9.22 43.52-8.90L43.52-8.90L43.52-8.90Q43.26-8.58 43.58-8.58L43.58-8.58L46.46-8.51L46.46-8.51Q47.94-8.51 48.70-8.58L48.70-8.58L48.70-8.58Q56.70-8.58 59.97-8.83L59.97-8.83L59.97-8.83Q61.38-8.96 61.70-8.54L61.70-8.54L61.70-8.54Q62.02-8.13 61.98-7.58L61.98-7.58L61.98-7.58Q61.95-7.04 61.95-6.85L61.95-6.85L61.95-6.85Q61.89-6.02 61.92-5.22L61.92-5.22L61.92-5.22Q61.95-4.42 61.95-3.84L61.95-3.84L61.95-1.98L61.95-1.98Q61.95-0.77 61.44-0.48L61.44-0.48L61.44-0.48Q60.93-0.19 59.46-0.19L59.46-0.19L59.46-0.19Q58.11-0.19 57.09-0.13L57.09-0.13L52.16-0.06L52.16-0.06Q50.30-0.06 49.73-0.13L49.73-0.13L39.62-0.19L39.62-0.19Q36.48-0.19 36.16-0.13L36.16-0.13L36.16-0.13Q35.90-0.06 35.26-0.06L35.26-0.06L35.26-0.06Q34.05-0.06 34.05-0.77L34.05-0.77L34.05-0.77Q34.05-1.22 34.37-1.70L34.37-1.70L34.37-1.70Q34.69-2.18 35.04-2.59L35.04-2.59L35.04-2.59Q35.39-3.01 35.58-3.20L35.58-3.20L38.78-7.23L38.78-7.23Q45.38-15.55 46.02-16.32L46.02-16.32L46.02-16.32Q46.14-16.45 47.17-17.66L47.17-17.66L47.17-17.66Q50.05-21.06 52.06-23.87L52.06-23.87L52.06-23.87Q54.08-26.69 55.55-30.34L55.55-30.34L55.55-30.34Q56.26-32.13 56.26-33.92L56.26-33.92L56.26-33.92Q56.26-36.03 55.26-37.73L55.26-37.73L55.26-37.73Q54.27-39.42 52.74-40.38L52.74-40.38L52.74-40.38Q51.20-41.34 49.66-41.34L49.66-41.34L49.66-41.34Q47.17-41.34 45.54-40.93L45.54-40.93L45.54-40.93Q43.90-40.51 41.92-39.68L41.92-39.68L41.92-39.68Q40.77-39.23 38.40-36.35L38.40-36.35L38.40-36.35Q37.63-35.46 37.50-35.39L37.50-35.39L37.18-35.26L37.18-35.26Q37.06-35.26 36.90-35.42L36.90-35.42L36.90-35.42Q36.74-35.58 36.61-35.65L36.61-35.65L36.61-35.65Q36.35-35.90 36.03-36.06L36.03-36.06L36.03-36.06Q35.71-36.22 35.52-36.42L35.52-36.42L35.52-36.42Q35.33-36.67 35.30-36.80L35.30-36.80L35.30-36.80Q35.26-36.93 35.46-37.25L35.46-37.25L35.46-37.25Q36.61-38.85 38.59-40.83L38.59-40.83L38.59-40.83Q39.36-41.60 41.44-42.88L41.44-42.88L41.44-42.88Q43.52-44.16 45.79-45.12L45.79-45.12L45.79-45.12Q48.06-46.08 49.66-46.08L49.66-46.08Z" fill="#542b55"></path></g></g><style>text {
  font-size: 64px;
  font-family: Arial Black;
  dominant-baseline: central;
  text-anchor: middle;
}</style></svg>