<svg width="107.05000610351563px" height="118.39999999999999px" xmlns="http://www.w3.org/2000/svg" viewBox="196.4749969482422 15.800000000000004 107.05000610351563 118.39999999999999" style="background: rgba(181, 204, 241, 0);" preserveAspectRatio="xMidYMid"><defs><filter id="editing-hover" x="-100%" y="-100%" width="300%" height="300%"><feFlood flood-color="#a497c1" result="flood"></feFlood><feComposite operator="in" in2="SourceAlpha" in="flood" result="shadow"></feComposite><feOffset dx="-4" dy="-4" in="SourceGraphic" result="offset-1"></feOffset><feOffset dx="4" dy="4" in="shadow" result="offset-2"></feOffset><feMerge><feMergeNode in="offset-2"></feMergeNode><feMergeNode in="offset-1"></feMergeNode></feMerge></filter></defs><g filter="url(#editing-hover)"><g transform="translate(217.96498036384583, 98.03999710083008)"><path d="M17.66-46.08L17.66-46.08Q20.61-46.08 22.91-44.67L22.91-44.67L22.91-44.67Q25.22-43.26 26.46-40.99L26.46-40.99L26.46-40.99Q27.71-38.72 27.71-36.22L27.71-36.22L27.71-36.22Q27.71-33.92 27.07-31.87L27.07-31.87L27.07-31.87Q26.43-29.82 25.73-28.58L25.73-28.58L25.73-28.58Q25.02-27.33 23.36-24.64L23.36-24.64L23.36-24.64Q22.21-22.72 17.38-16.35L17.38-16.35L17.38-16.35Q12.54-9.98 12.10-9.54L12.10-9.54L12.10-9.54Q11.78-9.22 11.52-8.90L11.52-8.90L11.52-8.90Q11.26-8.58 11.58-8.58L11.58-8.58L14.46-8.51L14.46-8.51Q15.94-8.51 16.70-8.58L16.70-8.58L16.70-8.58Q24.70-8.58 27.97-8.83L27.97-8.83L27.97-8.83Q29.38-8.96 29.70-8.54L29.70-8.54L29.70-8.54Q30.02-8.13 29.98-7.58L29.98-7.58L29.98-7.58Q29.95-7.04 29.95-6.85L29.95-6.85L29.95-6.85Q29.89-6.02 29.92-5.22L29.92-5.22L29.92-5.22Q29.95-4.42 29.95-3.84L29.95-3.84L29.95-1.98L29.95-1.98Q29.95-0.77 29.44-0.48L29.44-0.48L29.44-0.48Q28.93-0.19 27.46-0.19L27.46-0.19L27.46-0.19Q26.11-0.19 25.09-0.13L25.09-0.13L20.16-0.06L20.16-0.06Q18.30-0.06 17.73-0.13L17.73-0.13L7.62-0.19L7.62-0.19Q4.48-0.19 4.16-0.13L4.16-0.13L4.16-0.13Q3.90-0.06 3.26-0.06L3.26-0.06L3.26-0.06Q2.05-0.06 2.05-0.77L2.05-0.77L2.05-0.77Q2.05-1.22 2.37-1.70L2.37-1.70L2.37-1.70Q2.69-2.18 3.04-2.59L3.04-2.59L3.04-2.59Q3.39-3.01 3.58-3.20L3.58-3.20L6.78-7.23L6.78-7.23Q13.38-15.55 14.02-16.32L14.02-16.32L14.02-16.32Q14.14-16.45 15.17-17.66L15.17-17.66L15.17-17.66Q18.05-21.06 20.06-23.87L20.06-23.87L20.06-23.87Q22.08-26.69 23.55-30.34L23.55-30.34L23.55-30.34Q24.26-32.13 24.26-33.92L24.26-33.92L24.26-33.92Q24.26-36.03 23.26-37.73L23.26-37.73L23.26-37.73Q22.27-39.42 20.74-40.38L20.74-40.38L20.74-40.38Q19.20-41.34 17.66-41.34L17.66-41.34L17.66-41.34Q15.17-41.34 13.54-40.93L13.54-40.93L13.54-40.93Q11.90-40.51 9.92-39.68L9.92-39.68L9.92-39.68Q8.77-39.23 6.40-36.35L6.40-36.35L6.40-36.35Q5.63-35.46 5.50-35.39L5.50-35.39L5.18-35.26L5.18-35.26Q5.06-35.26 4.90-35.42L4.90-35.42L4.90-35.42Q4.74-35.58 4.61-35.65L4.61-35.65L4.61-35.65Q4.35-35.90 4.03-36.06L4.03-36.06L4.03-36.06Q3.71-36.22 3.52-36.42L3.52-36.42L3.52-36.42Q3.33-36.67 3.30-36.80L3.30-36.80L3.30-36.80Q3.26-36.93 3.46-37.25L3.46-37.25L3.46-37.25Q4.61-38.85 6.59-40.83L6.59-40.83L6.59-40.83Q7.36-41.60 9.44-42.88L9.44-42.88L9.44-42.88Q11.52-44.16 13.79-45.12L13.79-45.12L13.79-45.12Q16.06-46.08 17.66-46.08L17.66-46.08ZM47.87-0.26L47.87-0.26Q41.92-0.58 40.32-1.41L40.32-1.41L40.32-1.41Q38.72-2.24 36.93-5.50L36.93-5.50L36.93-5.50Q35.20-8.70 34.50-11.58L34.50-11.58L34.50-11.58Q33.92-14.40 33.92-23.94L33.92-23.94L33.92-23.94Q33.92-29.50 34.50-33.66L34.50-33.66L34.50-33.66Q35.07-37.82 36.67-40.45L36.67-40.45L36.67-40.45Q38.53-43.33 41.34-44.67L41.34-44.67L41.34-44.67Q44.29-46.08 49.73-46.14L49.73-46.14L49.73-46.14Q56.77-45.12 59.01-41.15L59.01-41.15L59.01-41.15Q61.25-37.18 61.63-32.64L61.63-32.64L61.63-32.64Q62.02-28.16 62.02-22.21L62.02-22.21L62.02-22.21Q62.02-16.06 61.18-11.26L61.18-11.26L61.18-11.26Q60.42-6.21 56.93-3.23L56.93-3.23L56.93-3.23Q53.44-0.26 47.87-0.26L47.87-0.26ZM49.15-42.43L49.15-42.43Q47.30-42.43 44.86-41.09L44.86-41.09L44.86-41.09Q42.56-39.87 41.28-37.31L41.28-37.31L41.28-37.31Q40.13-35.01 40.13-32.32L40.13-32.32L40.13-32.32Q40.13-30.46 40.19-29.25L40.19-29.25L40.26-23.74L40.38-17.54L40.38-17.54Q40.58-12.29 42.37-10.11L42.37-10.11L42.37-10.11Q44.93-7.04 45.57-6.14L45.57-6.14L45.57-6.14Q46.91-4.35 49.92-4.35L49.92-4.35L49.92-4.35Q51.78-4.35 53.79-5.73L53.79-5.73L53.79-5.73Q55.81-7.10 57.28-9.66L57.28-9.66L57.28-9.66Q58.69-12.03 58.69-15.74L58.69-15.74L58.62-20.22L58.62-20.22Q58.56-21.06 58.56-22.34L58.56-22.34L58.56-22.34Q58.69-27.20 58.69-28.74L58.69-28.74L58.69-28.74Q58.69-32.51 58.43-34.37L58.43-34.37L58.43-34.37Q57.92-38.27 56.83-40.19L56.83-40.19L56.83-40.19Q55.68-42.24 53.50-42.43L53.50-42.43L53.50-42.43Q52.10-42.56 51.33-42.56L51.33-42.56L51.33-42.56Q50.69-42.56 49.15-42.43L49.15-42.43ZM49.98-26.62L49.98-26.62Q53.25-26.62 53.25-22.46L53.25-22.46L53.25-22.46Q53.25-21.31 52.22-20.51L52.22-20.51L52.22-20.51Q51.20-19.71 49.98-19.71L49.98-19.71L49.98-19.71Q48.70-19.71 47.78-20.67L47.78-20.67L47.78-20.67Q46.85-21.63 46.85-23.42L46.85-23.42L46.85-23.42Q46.85-25.34 47.71-25.98L47.71-25.98L47.71-25.98Q48.58-26.62 49.98-26.62L49.98-26.62Z" fill="#542b55"></path></g></g><style>text {
  font-size: 64px;
  font-family: Arial Black;
  dominant-baseline: central;
  text-anchor: middle;
}</style></svg>