<svg width="107.05000610351563px" height="118.39999999999999px" xmlns="http://www.w3.org/2000/svg" viewBox="196.4749969482422 15.800000000000004 107.05000610351563 118.39999999999999" style="background: rgba(181, 204, 241, 0);" preserveAspectRatio="xMidYMid"><defs><filter id="editing-hover" x="-100%" y="-100%" width="300%" height="300%"><feFlood flood-color="#a497c1" result="flood"></feFlood><feComposite operator="in" in2="SourceAlpha" in="flood" result="shadow"></feComposite><feOffset dx="-4" dy="-4" in="SourceGraphic" result="offset-1"></feOffset><feOffset dx="4" dy="4" in="shadow" result="offset-2"></feOffset><feMerge><feMergeNode in="offset-2"></feMergeNode><feMergeNode in="offset-1"></feMergeNode></feMerge></filter></defs><g filter="url(#editing-hover)"><g transform="translate(217.93498039245605, 98.99999809265137)"><path d="M15.87-0.26L15.87-0.26Q9.92-0.58 8.32-1.41L8.32-1.41L8.32-1.41Q6.72-2.24 4.93-5.50L4.93-5.50L4.93-5.50Q3.20-8.70 2.50-11.58L2.50-11.58L2.50-11.58Q1.92-14.40 1.92-23.94L1.92-23.94L1.92-23.94Q1.92-29.50 2.50-33.66L2.50-33.66L2.50-33.66Q3.07-37.82 4.67-40.45L4.67-40.45L4.67-40.45Q6.53-43.33 9.34-44.67L9.34-44.67L9.34-44.67Q12.29-46.08 17.73-46.14L17.73-46.14L17.73-46.14Q24.77-45.12 27.01-41.15L27.01-41.15L27.01-41.15Q29.25-37.18 29.63-32.64L29.63-32.64L29.63-32.64Q30.02-28.16 30.02-22.21L30.02-22.21L30.02-22.21Q30.02-16.06 29.18-11.26L29.18-11.26L29.18-11.26Q28.42-6.21 24.93-3.23L24.93-3.23L24.93-3.23Q21.44-0.26 15.87-0.26L15.87-0.26ZM17.15-42.43L17.15-42.43Q15.30-42.43 12.86-41.09L12.86-41.09L12.86-41.09Q10.56-39.87 9.28-37.31L9.28-37.31L9.28-37.31Q8.13-35.01 8.13-32.32L8.13-32.32L8.13-32.32Q8.13-30.46 8.19-29.25L8.19-29.25L8.26-23.74L8.38-17.54L8.38-17.54Q8.58-12.29 10.37-10.11L10.37-10.11L10.37-10.11Q12.93-7.04 13.57-6.14L13.57-6.14L13.57-6.14Q14.91-4.35 17.92-4.35L17.92-4.35L17.92-4.35Q19.78-4.35 21.79-5.73L21.79-5.73L21.79-5.73Q23.81-7.10 25.28-9.66L25.28-9.66L25.28-9.66Q26.69-12.03 26.69-15.74L26.69-15.74L26.62-20.22L26.62-20.22Q26.56-21.06 26.56-22.34L26.56-22.34L26.56-22.34Q26.69-27.20 26.69-28.74L26.69-28.74L26.69-28.74Q26.69-32.51 26.43-34.37L26.43-34.37L26.43-34.37Q25.92-38.27 24.83-40.19L24.83-40.19L24.83-40.19Q23.68-42.24 21.50-42.43L21.50-42.43L21.50-42.43Q20.10-42.56 19.33-42.56L19.33-42.56L19.33-42.56Q18.69-42.56 17.15-42.43L17.15-42.43ZM17.98-26.62L17.98-26.62Q21.25-26.62 21.25-22.46L21.25-22.46L21.25-22.46Q21.25-21.31 20.22-20.51L20.22-20.51L20.22-20.51Q19.20-19.71 17.98-19.71L17.98-19.71L17.98-19.71Q16.70-19.71 15.78-20.67L15.78-20.67L15.78-20.67Q14.85-21.63 14.85-23.42L14.85-23.42L14.85-23.42Q14.85-25.34 15.71-25.98L15.71-25.98L15.71-25.98Q16.58-26.62 17.98-26.62L17.98-26.62ZM40.19-45.18L40.19-45.18Q41.41-45.18 44.22-45.44L44.22-45.44L44.22-45.44Q47.30-45.70 49.15-45.70L49.15-45.70L56.13-45.63L56.13-45.63Q57.09-45.57 58.11-45.57L58.11-45.57L58.11-45.57Q58.69-45.57 58.78-44.99L58.78-44.99L58.78-44.99Q58.88-44.42 58.88-42.69L58.88-42.69L58.82-34.82L58.82-34.82Q58.82-34.11 58.46-33.66L58.46-33.66L58.46-33.66Q58.11-33.22 57.50-32.74L57.50-32.74L57.50-32.74Q56.90-32.26 56.51-31.94L56.51-31.94L56.51-31.94Q54.78-30.72 49.79-26.88L49.79-26.88L49.79-26.88Q49.41-26.50 48.86-26.08L48.86-26.08L48.86-26.08Q48.32-25.66 47.74-25.15L47.74-25.15L47.74-25.15Q47.49-24.96 47.14-24.67L47.14-24.67L47.14-24.67Q46.78-24.38 46.27-24.06L46.27-24.06L46.27-24.06Q45.50-23.62 45.50-23.23L45.50-23.23L45.50-23.23Q45.50-22.98 45.70-22.98L45.70-22.98L45.70-22.98Q45.82-22.98 46.53-23.01L46.53-23.01L46.53-23.01Q47.23-23.04 48.26-22.98L48.26-22.98L48.26-22.98Q49.73-22.98 52-22.82L52-22.82L52-22.82Q54.27-22.66 55.23-22.53L55.23-22.53L55.23-22.53Q56.45-22.40 58.02-21.54L58.02-21.54L58.02-21.54Q59.58-20.67 60.90-18.56L60.90-18.56L60.90-18.56Q62.21-16.45 62.21-12.93L62.21-12.93L62.21-12.93Q62.21-10.05 61.44-7.94L61.44-7.94L61.44-7.94Q61.31-7.62 60.77-5.98L60.77-5.98L60.77-5.98Q60.22-4.35 59.26-3.10L59.26-3.10L59.26-3.10Q58.30-1.86 56.90-0.90L56.90-0.90L56.90-0.90Q54.46 0.51 52.93 1.02L52.93 1.02L52.93 1.02Q50.75 1.86 44.80 1.86L44.80 1.86L44.80 1.86Q42.11 1.86 39.87-0.10L39.87-0.10L39.87-0.10Q37.63-2.05 36.29-4.32L36.29-4.32L36.29-4.32Q34.94-6.59 34.43-7.94L34.43-7.94L34.43-7.94Q34.11-8.51 34.11-8.96L34.11-8.96L34.11-8.96Q34.11-9.28 34.34-9.38L34.34-9.38L34.34-9.38Q34.56-9.47 34.62-9.54L34.62-9.54L34.62-9.54Q34.69-9.66 35.23-9.92L35.23-9.92L35.23-9.92Q35.78-10.18 35.97-10.24L35.97-10.24L35.97-10.24Q36.10-10.30 36.29-10.30L36.29-10.30L36.29-10.30Q36.80-10.30 36.99-9.41L36.99-9.41L36.99-9.41Q37.12-9.15 37.60-7.68L37.60-7.68L37.60-7.68Q38.08-6.21 39.30-4.35L39.30-4.35L39.30-4.35Q40.51-2.50 42.75-1.38L42.75-1.38L42.75-1.38Q44.99-0.26 48-0.26L48-0.26L48-0.26Q50.18-0.26 52-0.96L52-0.96L52-0.96Q53.82-1.66 54.91-2.24L54.91-2.24L54.91-2.24Q56-2.82 56.26-2.94L56.26-2.94L56.26-2.94Q56.96-3.39 57.92-4.74L57.92-4.74L57.92-4.74Q58.88-6.08 59.58-8.22L59.58-8.22L59.58-8.22Q60.29-10.37 60.29-12.93L60.29-12.93L60.29-12.93Q60.03-17.02 57.41-19.20L57.41-19.20L57.41-19.20Q55.49-20.80 50.62-20.80L50.62-20.80L50.62-20.80Q48.64-20.80 43.71-20.10L43.71-20.10L43.71-20.10Q42.05-19.84 40.83-19.84L40.83-19.84L40.70-19.84L40.70-19.84Q40.38-19.84 40.26-20.22L40.26-20.22L40.26-20.22Q40.19-20.54 40.19-21.44L40.19-21.44L40.19-21.44Q40.19-21.63 40.38-21.86L40.38-21.86L40.38-21.86Q40.58-22.08 40.86-22.30L40.86-22.30L40.86-22.30Q41.15-22.53 41.54-22.85L41.54-22.85L41.54-22.85Q42.05-23.36 46.37-26.88L46.37-26.88L46.37-26.88Q50.69-30.40 52.93-32.19L52.93-32.19L52.93-32.19Q53.18-32.45 53.18-32.64L53.18-32.64L53.18-32.64Q53.18-33.09 51.26-33.09L51.26-33.09L51.26-33.09Q50.50-33.02 45.25-32.96L45.25-32.96L45.25-32.96Q40-32.90 36.67-32.83L36.67-32.83L36.67-32.83Q35.97-32.83 35.81-33.22L35.81-33.22L35.81-33.22Q35.65-33.60 35.68-34.21L35.68-34.21L35.68-34.21Q35.71-34.82 35.71-35.07L35.71-35.07L35.78-40.96L35.71-44.16L35.71-44.16Q35.71-45.44 37.25-45.44L37.25-45.44L37.25-45.44Q37.63-45.44 38.66-45.31L38.66-45.31L38.66-45.31Q39.68-45.18 40.19-45.18L40.19-45.18Z" fill="#542b55"></path></g></g><style>text {
  font-size: 64px;
  font-family: Arial Black;
  dominant-baseline: central;
  text-anchor: middle;
}</style></svg>