<svg width="107.05000610351563px" height="118.39999999999999px" xmlns="http://www.w3.org/2000/svg" viewBox="196.4749969482422 15.800000000000004 107.05000610351563 118.39999999999999" style="background: rgba(181, 204, 241, 0);" preserveAspectRatio="xMidYMid"><defs><filter id="editing-hover" x="-100%" y="-100%" width="300%" height="300%"><feFlood flood-color="#a497c1" result="flood"></feFlood><feComposite operator="in" in2="SourceAlpha" in="flood" result="shadow"></feComposite><feOffset dx="-4" dy="-4" in="SourceGraphic" result="offset-1"></feOffset><feOffset dx="4" dy="4" in="shadow" result="offset-2"></feOffset><feMerge><feMergeNode in="offset-2"></feMergeNode><feMergeNode in="offset-1"></feMergeNode></feMerge></filter></defs><g filter="url(#editing-hover)"><g transform="translate(217.8884105682373, 99.3849983215332)"><path d="M15.87-0.26L15.87-0.26Q9.92-0.58 8.32-1.41L8.32-1.41L8.32-1.41Q6.72-2.24 4.93-5.50L4.93-5.50L4.93-5.50Q3.20-8.70 2.50-11.58L2.50-11.58L2.50-11.58Q1.92-14.40 1.92-23.94L1.92-23.94L1.92-23.94Q1.92-29.50 2.50-33.66L2.50-33.66L2.50-33.66Q3.07-37.82 4.67-40.45L4.67-40.45L4.67-40.45Q6.53-43.33 9.34-44.67L9.34-44.67L9.34-44.67Q12.29-46.08 17.73-46.14L17.73-46.14L17.73-46.14Q24.77-45.12 27.01-41.15L27.01-41.15L27.01-41.15Q29.25-37.18 29.63-32.64L29.63-32.64L29.63-32.64Q30.02-28.16 30.02-22.21L30.02-22.21L30.02-22.21Q30.02-16.06 29.18-11.26L29.18-11.26L29.18-11.26Q28.42-6.21 24.93-3.23L24.93-3.23L24.93-3.23Q21.44-0.26 15.87-0.26L15.87-0.26ZM17.15-42.43L17.15-42.43Q15.30-42.43 12.86-41.09L12.86-41.09L12.86-41.09Q10.56-39.87 9.28-37.31L9.28-37.31L9.28-37.31Q8.13-35.01 8.13-32.32L8.13-32.32L8.13-32.32Q8.13-30.46 8.19-29.25L8.19-29.25L8.26-23.74L8.38-17.54L8.38-17.54Q8.58-12.29 10.37-10.11L10.37-10.11L10.37-10.11Q12.93-7.04 13.57-6.14L13.57-6.14L13.57-6.14Q14.91-4.35 17.92-4.35L17.92-4.35L17.92-4.35Q19.78-4.35 21.79-5.73L21.79-5.73L21.79-5.73Q23.81-7.10 25.28-9.66L25.28-9.66L25.28-9.66Q26.69-12.03 26.69-15.74L26.69-15.74L26.62-20.22L26.62-20.22Q26.56-21.06 26.56-22.34L26.56-22.34L26.56-22.34Q26.69-27.20 26.69-28.74L26.69-28.74L26.69-28.74Q26.69-32.51 26.43-34.37L26.43-34.37L26.43-34.37Q25.92-38.27 24.83-40.19L24.83-40.19L24.83-40.19Q23.68-42.24 21.50-42.43L21.50-42.43L21.50-42.43Q20.10-42.56 19.33-42.56L19.33-42.56L19.33-42.56Q18.69-42.56 17.15-42.43L17.15-42.43ZM17.98-26.62L17.98-26.62Q21.25-26.62 21.25-22.46L21.25-22.46L21.25-22.46Q21.25-21.31 20.22-20.51L20.22-20.51L20.22-20.51Q19.20-19.71 17.98-19.71L17.98-19.71L17.98-19.71Q16.70-19.71 15.78-20.67L15.78-20.67L15.78-20.67Q14.85-21.63 14.85-23.42L14.85-23.42L14.85-23.42Q14.85-25.34 15.71-25.98L15.71-25.98L15.71-25.98Q16.58-26.62 17.98-26.62L17.98-26.62ZM39.23-45.89L39.23-45.89Q40.77-45.89 44.10-46.02L44.10-46.02L44.10-46.02Q46.40-46.14 47.36-46.14L47.36-46.14L47.36-46.14Q48.13-46.21 50.30-46.21L50.30-46.21L55.87-46.14L55.87-46.14Q57.28-46.08 59.46-46.08L59.46-46.08L59.46-46.08Q60.74-46.08 61.18-45.70L61.18-45.70L61.18-45.70Q61.63-45.31 61.63-44.61L61.63-44.61L61.57-43.52L61.44-40.58L61.31-37.31L61.31-37.31Q61.31-35.97 59.39-35.97L59.39-35.97L59.39-35.97Q58.82-35.97 57.54-36.10L57.54-36.10L57.54-36.10Q57.15-36.16 55.68-36.16L55.68-36.16L55.68-36.16Q53.44-36.16 48.32-36.03L48.32-36.03L43.65-35.90L43.65-35.90Q41.86-35.90 41.28-35.30L41.28-35.30L41.28-35.30Q40.70-34.69 40.70-33.54L40.70-33.54L40.58-29.38L40.58-29.38Q40.58-27.84 40.51-27.39L40.51-27.39L40.51-24.77L40.51-24.77Q42.18-26.30 43.26-26.82L43.26-26.82L43.26-26.82Q46.66-28.54 50.69-28.74L50.69-28.74L50.69-28.74Q55.55-28.48 58.40-26.24L58.40-26.24L58.40-26.24Q61.25-24 62.02-20.10L62.02-20.10L62.02-20.10Q62.40-16.90 62.27-15.49L62.27-15.49L62.27-15.49Q62.21-14.40 61.89-12.93L61.89-12.93L61.89-12.93Q61.82-12.48 61.06-8.19L61.06-8.19L61.06-8.19Q60.29-3.90 56.83-0.67L56.83-0.67L56.83-0.67Q53.38 2.56 47.94 2.56L47.94 2.56L47.94 2.56Q39.42 2.56 37.02-2.14L37.02-2.14L37.02-2.14Q34.62-6.85 34.62-10.11L34.62-10.11L34.62-10.11Q34.62-13.38 34.56-13.82L34.56-13.82L34.56-13.82Q34.43-14.46 34.43-15.49L34.43-15.49L34.43-15.49Q34.43-17.28 35.26-17.28L35.26-17.28L39.49-17.34L39.49-17.34Q40.38-17.34 40.58-17.02L40.58-17.02L40.58-17.02Q40.77-16.70 40.77-15.81L40.77-15.81L40.77-15.81Q40.77-15.04 40.83-14.59L40.83-14.59L40.83-14.59Q41.02-13.12 42.56-12.06L42.56-12.06L42.56-12.06Q44.10-11.01 46.78-11.01L46.78-11.01L46.78-11.01Q48.13-11.01 49.38-11.62L49.38-11.62L49.38-11.62Q50.62-12.22 52.10-13.44L52.10-13.44L52.10-13.44Q53.44-14.66 53.76-15.68L53.76-15.68L53.76-15.68Q54.08-16.70 54.08-18.94L54.08-18.94L54.08-18.94Q53.57-23.04 49.98-23.30L49.98-23.30L49.98-23.30Q47.10-23.10 45.57-22.59L45.57-22.59L45.57-22.59Q44.03-22.08 42.88-21.12L42.88-21.12L42.88-21.12Q41.66-20.10 40.96-20.16L40.96-20.16L35.07-20.22L35.07-20.22Q34.43-20.22 34.43-22.34L34.43-22.34L34.43-22.34Q34.43-22.78 34.56-24.19L34.56-24.19L34.56-24.19Q34.75-25.92 34.75-26.11L34.75-26.11L34.75-26.11Q34.88-27.65 34.50-36.03L34.50-36.03L34.50-36.03Q34.43-37.89 34.37-39.74L34.37-39.74L34.37-39.74Q34.30-41.60 34.30-43.14L34.30-43.14L34.30-43.14Q34.30-44.80 35.10-45.41L35.10-45.41L35.10-45.41Q35.90-46.02 37.25-46.02L37.25-46.02L37.25-46.02Q37.82-46.02 38.30-45.95L38.30-45.95L38.30-45.95Q38.78-45.89 39.23-45.89L39.23-45.89Z" fill="#542b55"></path></g></g><style>text {
  font-size: 64px;
  font-family: Arial Black;
  dominant-baseline: central;
  text-anchor: middle;
}</style></svg>