<svg width="107.05000610351563px" height="118.39999999999999px" xmlns="http://www.w3.org/2000/svg" viewBox="196.4749969482422 15.800000000000004 107.05000610351563 118.39999999999999" style="background: rgba(181, 204, 241, 0);" preserveAspectRatio="xMidYMid"><defs><filter id="editing-hover" x="-100%" y="-100%" width="300%" height="300%"><feFlood flood-color="#a497c1" result="flood"></feFlood><feComposite operator="in" in2="SourceAlpha" in="flood" result="shadow"></feComposite><feOffset dx="-4" dy="-4" in="SourceGraphic" result="offset-1"></feOffset><feOffset dx="4" dy="4" in="shadow" result="offset-2"></feOffset><feMerge><feMergeNode in="offset-2"></feMergeNode><feMergeNode in="offset-1"></feMergeNode></feMerge></filter></defs><g filter="url(#editing-hover)"><g transform="translate(217.58498001098633, 99.12499809265137)"><path d="M15.87-0.26L15.87-0.26Q9.92-0.58 8.32-1.41L8.32-1.41L8.32-1.41Q6.72-2.24 4.93-5.50L4.93-5.50L4.93-5.50Q3.20-8.70 2.50-11.58L2.50-11.58L2.50-11.58Q1.92-14.40 1.92-23.94L1.92-23.94L1.92-23.94Q1.92-29.50 2.50-33.66L2.50-33.66L2.50-33.66Q3.07-37.82 4.67-40.45L4.67-40.45L4.67-40.45Q6.53-43.33 9.34-44.67L9.34-44.67L9.34-44.67Q12.29-46.08 17.73-46.14L17.73-46.14L17.73-46.14Q24.77-45.12 27.01-41.15L27.01-41.15L27.01-41.15Q29.25-37.18 29.63-32.64L29.63-32.64L29.63-32.64Q30.02-28.16 30.02-22.21L30.02-22.21L30.02-22.21Q30.02-16.06 29.18-11.26L29.18-11.26L29.18-11.26Q28.42-6.21 24.93-3.23L24.93-3.23L24.93-3.23Q21.44-0.26 15.87-0.26L15.87-0.26ZM17.15-42.43L17.15-42.43Q15.30-42.43 12.86-41.09L12.86-41.09L12.86-41.09Q10.56-39.87 9.28-37.31L9.28-37.31L9.28-37.31Q8.13-35.01 8.13-32.32L8.13-32.32L8.13-32.32Q8.13-30.46 8.19-29.25L8.19-29.25L8.26-23.74L8.38-17.54L8.38-17.54Q8.58-12.29 10.37-10.11L10.37-10.11L10.37-10.11Q12.93-7.04 13.57-6.14L13.57-6.14L13.57-6.14Q14.91-4.35 17.92-4.35L17.92-4.35L17.92-4.35Q19.78-4.35 21.79-5.73L21.79-5.73L21.79-5.73Q23.81-7.10 25.28-9.66L25.28-9.66L25.28-9.66Q26.69-12.03 26.69-15.74L26.69-15.74L26.62-20.22L26.62-20.22Q26.56-21.06 26.56-22.34L26.56-22.34L26.56-22.34Q26.69-27.20 26.69-28.74L26.69-28.74L26.69-28.74Q26.69-32.51 26.43-34.37L26.43-34.37L26.43-34.37Q25.92-38.27 24.83-40.19L24.83-40.19L24.83-40.19Q23.68-42.24 21.50-42.43L21.50-42.43L21.50-42.43Q20.10-42.56 19.33-42.56L19.33-42.56L19.33-42.56Q18.69-42.56 17.15-42.43L17.15-42.43ZM17.98-26.62L17.98-26.62Q21.25-26.62 21.25-22.46L21.25-22.46L21.25-22.46Q21.25-21.31 20.22-20.51L20.22-20.51L20.22-20.51Q19.20-19.71 17.98-19.71L17.98-19.71L17.98-19.71Q16.70-19.71 15.78-20.67L15.78-20.67L15.78-20.67Q14.85-21.63 14.85-23.42L14.85-23.42L14.85-23.42Q14.85-25.34 15.71-25.98L15.71-25.98L15.71-25.98Q16.58-26.62 17.98-26.62L17.98-26.62ZM51.39-24.45L51.39-24.45Q54.14-24.45 56.80-23.26L56.80-23.26L56.80-23.26Q59.46-22.08 61.18-19.78L61.18-19.78L61.18-19.78Q62.91-17.47 62.91-14.21L62.91-14.21L62.91-14.21Q62.91-6.91 60.29-3.30L60.29-3.30L60.29-3.30Q57.66 0.32 54.43 1.22L54.43 1.22L54.43 1.22Q51.20 2.11 47.36 2.11L47.36 2.11L47.36 2.11Q44.54 2.11 41.18-0.32L41.18-0.32L41.18-0.32Q37.82-2.75 35.42-8.10L35.42-8.10L35.42-8.10Q33.02-13.44 33.02-21.57L33.02-21.57L33.02-21.57Q33.02-29.70 35.58-34.94L35.58-34.94L35.58-34.94Q38.14-40.19 41.60-42.53L41.60-42.53L41.60-42.53Q45.06-44.86 47.81-44.86L47.81-44.86L47.81-44.86Q53.18-44.86 56.26-41.38L56.26-41.38L56.26-41.38Q59.33-37.89 60.74-34.62L60.74-34.62L60.74-34.62Q60.99-33.98 60.99-33.73L60.99-33.73L60.99-33.73Q60.99-32.51 59.33-31.81L59.33-31.81L59.33-31.81Q58.30-31.30 52.74-27.20L52.74-27.20L52.74-27.20Q52.29-26.94 51.84-26.94L51.84-26.94L51.84-26.94Q51.39-26.94 51.17-27.30L51.17-27.30L51.17-27.30Q50.94-27.65 50.94-28.03L50.94-28.03L50.94-28.03Q50.82-28.22 50.56-28.86L50.56-28.86L50.56-28.86Q50.30-29.50 49.47-29.98L49.47-29.98L49.47-29.98Q48.64-30.46 47.10-30.46L47.10-30.46L47.10-30.46Q45.89-30.46 45.09-29.09L45.09-29.09L45.09-29.09Q44.29-27.71 44.03-25.73L44.03-25.73L44.03-25.73Q43.71-23.36 43.71-21.06L43.71-21.06L43.71-21.06Q44.35-22.02 45.50-22.72L45.50-22.72L45.50-22.72Q48.19-24.45 51.39-24.45L51.39-24.45ZM48.13-8.77L48.13-8.77Q49.66-8.77 50.53-10.62L50.53-10.62L50.53-10.62Q51.39-12.48 51.39-14.46L51.39-14.46L51.39-14.46Q51.39-15.87 50.24-16.77L50.24-16.77L50.24-16.77Q49.09-17.66 48.19-17.66L48.19-17.66L48.19-17.66Q46.72-17.66 45.60-16.38L45.60-16.38L45.60-16.38Q44.48-15.10 44.48-13.44L44.48-13.44L44.48-13.44Q44.48-11.65 45.44-10.21L45.44-10.21L45.44-10.21Q46.40-8.77 48.13-8.77L48.13-8.77Z" fill="#542b55"></path></g></g><style>text {
  font-size: 64px;
  font-family: Arial Black;
  dominant-baseline: central;
  text-anchor: middle;
}</style></svg>