<svg width="107.51997375488281px" height="118.39999999999999px" xmlns="http://www.w3.org/2000/svg" viewBox="196.2400131225586 15.800000000000004 107.51997375488281 118.39999999999999" style="background: rgba(181, 204, 241, 0);" preserveAspectRatio="xMidYMid"><defs><filter id="editing-hover" x="-100%" y="-100%" width="300%" height="300%"><feFlood flood-color="#a497c1" result="flood"></feFlood><feComposite operator="in" in2="SourceAlpha" in="flood" result="shadow"></feComposite><feOffset dx="-4" dy="-4" in="SourceGraphic" result="offset-1"></feOffset><feOffset dx="4" dy="4" in="shadow" result="offset-2"></feOffset><feMerge><feMergeNode in="offset-2"></feMergeNode><feMergeNode in="offset-1"></feMergeNode></feMerge></filter></defs><g filter="url(#editing-hover)"><g transform="translate(217.22496223449707, 98.64499855041504)"><path d="M15.87-0.26L15.87-0.26Q9.92-0.58 8.32-1.41L8.32-1.41L8.32-1.41Q6.72-2.24 4.93-5.50L4.93-5.50L4.93-5.50Q3.20-8.70 2.50-11.58L2.50-11.58L2.50-11.58Q1.92-14.40 1.92-23.94L1.92-23.94L1.92-23.94Q1.92-29.50 2.50-33.66L2.50-33.66L2.50-33.66Q3.07-37.82 4.67-40.45L4.67-40.45L4.67-40.45Q6.53-43.33 9.34-44.67L9.34-44.67L9.34-44.67Q12.29-46.08 17.73-46.14L17.73-46.14L17.73-46.14Q24.77-45.12 27.01-41.15L27.01-41.15L27.01-41.15Q29.25-37.18 29.63-32.64L29.63-32.64L29.63-32.64Q30.02-28.16 30.02-22.21L30.02-22.21L30.02-22.21Q30.02-16.06 29.18-11.26L29.18-11.26L29.18-11.26Q28.42-6.21 24.93-3.23L24.93-3.23L24.93-3.23Q21.44-0.26 15.87-0.26L15.87-0.26ZM17.15-42.43L17.15-42.43Q15.30-42.43 12.86-41.09L12.86-41.09L12.86-41.09Q10.56-39.87 9.28-37.31L9.28-37.31L9.28-37.31Q8.13-35.01 8.13-32.32L8.13-32.32L8.13-32.32Q8.13-30.46 8.19-29.25L8.19-29.25L8.26-23.74L8.38-17.54L8.38-17.54Q8.58-12.29 10.37-10.11L10.37-10.11L10.37-10.11Q12.93-7.04 13.57-6.14L13.57-6.14L13.57-6.14Q14.91-4.35 17.92-4.35L17.92-4.35L17.92-4.35Q19.78-4.35 21.79-5.73L21.79-5.73L21.79-5.73Q23.81-7.10 25.28-9.66L25.28-9.66L25.28-9.66Q26.69-12.03 26.69-15.74L26.69-15.74L26.62-20.22L26.62-20.22Q26.56-21.06 26.56-22.34L26.56-22.34L26.56-22.34Q26.69-27.20 26.69-28.74L26.69-28.74L26.69-28.74Q26.69-32.51 26.43-34.37L26.43-34.37L26.43-34.37Q25.92-38.27 24.83-40.19L24.83-40.19L24.83-40.19Q23.68-42.24 21.50-42.43L21.50-42.43L21.50-42.43Q20.10-42.56 19.33-42.56L19.33-42.56L19.33-42.56Q18.69-42.56 17.15-42.43L17.15-42.43ZM17.98-26.62L17.98-26.62Q21.25-26.62 21.25-22.46L21.25-22.46L21.25-22.46Q21.25-21.31 20.22-20.51L20.22-20.51L20.22-20.51Q19.20-19.71 17.98-19.71L17.98-19.71L17.98-19.71Q16.70-19.71 15.78-20.67L15.78-20.67L15.78-20.67Q14.85-21.63 14.85-23.42L14.85-23.42L14.85-23.42Q14.85-25.34 15.71-25.98L15.71-25.98L15.71-25.98Q16.58-26.62 17.98-26.62L17.98-26.62ZM63.10-43.84L63.10-43.84Q63.74-43.84 63.87-43.23L63.87-43.23L63.87-43.23Q64-42.62 63.97-41.86L63.97-41.86L63.97-41.86Q63.94-41.09 63.94-40.70L63.94-40.70L63.94-40.70Q63.94-39.68 63.46-38.75L63.46-38.75L63.46-38.75Q62.98-37.82 61.50-35.65L61.50-35.65L61.50-35.65Q60.10-33.86 54.98-26.43L54.98-26.43L59.58-26.43L59.58-26.43Q60.86-26.56 61.18-26.14L61.18-26.14L61.18-26.14Q61.50-25.73 61.50-24.64L61.50-24.64L61.50-19.84L61.50-19.84Q61.50-19.07 61.02-18.78L61.02-18.78L61.02-18.78Q60.54-18.50 59.14-18.50L59.14-18.50L55.94-18.50L53.63-18.69L53.63-18.69Q52.74-18.82 51.71-18.82L51.71-18.82L49.66-18.75L49.66-18.75Q47.55-15.62 42.82-7.55L42.82-7.55L40.51-3.71L40.51-3.71Q40.26-3.20 39.90-2.66L39.90-2.66L39.90-2.66Q39.55-2.11 39.17-1.47L39.17-1.47L39.17-1.47Q37.76 0.90 37.44 1.09L37.44 1.09L37.44 1.09Q37.38 1.15 37.18 1.15L37.18 1.15L37.18 1.15Q36.99 1.15 36.54 0.70L36.54 0.70L36.54 0.70Q36.10 0.26 35.71 0L35.71 0L35.71 0Q35.26-0.26 35.26-0.70L35.26-0.70L35.26-0.70Q35.26-1.09 36.29-2.62L36.29-2.62L36.29-2.62Q36.48-2.88 40.38-9.47L40.38-9.47L42.24-12.54L42.24-12.54Q42.94-14.02 46.02-18.75L46.02-18.75L45.18-18.75L45.18-18.75Q44.03-18.75 42.14-18.62L42.14-18.62L42.14-18.62Q40.26-18.50 39.68-18.37L39.68-18.37L39.68-18.37Q39.10-18.37 38.98-18.72L38.98-18.72L38.98-18.72Q38.85-19.07 38.85-19.84L38.85-19.84L38.85-24.32L38.85-24.32Q38.85-25.41 39.10-25.92L39.10-25.92L39.10-25.92Q39.36-26.43 40.06-26.43L40.06-26.43L50.94-26.43L50.94-26.43Q52.03-27.97 53.50-30.40L53.50-30.40L53.50-30.40Q55.23-32.90 57.31-36.29L57.31-36.29L57.31-36.29Q59.39-39.68 59.39-39.94L59.39-39.94L59.39-39.94Q59.39-40.13 59.14-40.13L59.14-40.13L59.14-40.13Q58.94-40.13 58.62-40.03L58.62-40.03L58.62-40.03Q58.30-39.94 57.92-39.94L57.92-39.94L57.92-39.94Q57.47-39.94 56.35-40.03L56.35-40.03L56.35-40.03Q55.23-40.13 53.38-40.13L53.38-40.13L53.38-40.13Q51.52-40.13 45.15-39.52L45.15-39.52L45.15-39.52Q38.78-38.91 37.63-38.72L37.63-38.72L37.63-38.72Q36.99-38.59 36.74-38.59L36.74-38.59L36.74-38.59Q35.65-38.59 35.65-39.62L35.65-39.62L35.71-41.22L35.71-41.22Q35.71-41.86 35.65-42.11L35.65-42.11L35.65-42.24L35.65-42.24Q35.65-42.82 35.97-43.04L35.97-43.04L35.97-43.04Q36.29-43.26 36.86-43.33L36.86-43.33L38.53-43.39L38.53-43.39Q42.75-43.58 43.52-43.58L43.52-43.58L43.52-43.58Q44.48-43.58 47.42-43.71L47.42-43.71L47.42-43.71Q50.62-43.84 52.10-43.84L52.10-43.84L52.10-43.84Q53.38-43.84 53.82-43.78L53.82-43.78L53.82-43.78Q55.23-43.65 56.58-43.65L56.58-43.65L56.58-43.65Q58.75-43.65 61.44-43.78L61.44-43.78L61.44-43.78Q62.21-43.84 63.10-43.84L63.10-43.84Z" fill="#542b55"></path></g></g><style>text {
  font-size: 64px;
  font-family: Arial Black;
  dominant-baseline: central;
  text-anchor: middle;
}</style></svg>