<svg width="107.05000610351563px" height="118.39999999999999px" xmlns="http://www.w3.org/2000/svg" viewBox="196.4749969482422 15.800000000000004 107.05000610351563 118.39999999999999" style="background: rgba(181, 204, 241, 0);" preserveAspectRatio="xMidYMid"><defs><filter id="editing-hover" x="-100%" y="-100%" width="300%" height="300%"><feFlood flood-color="#a497c1" result="flood"></feFlood><feComposite operator="in" in2="SourceAlpha" in="flood" result="shadow"></feComposite><feOffset dx="-4" dy="-4" in="SourceGraphic" result="offset-1"></feOffset><feOffset dx="4" dy="4" in="shadow" result="offset-2"></feOffset><feMerge><feMergeNode in="offset-2"></feMergeNode><feMergeNode in="offset-1"></feMergeNode></feMerge></filter></defs><g filter="url(#editing-hover)"><g transform="translate(217.67997932434082, 98.61499786376953)"><path d="M15.87-0.26L15.87-0.26Q9.92-0.58 8.32-1.41L8.32-1.41L8.32-1.41Q6.72-2.24 4.93-5.50L4.93-5.50L4.93-5.50Q3.20-8.70 2.50-11.58L2.50-11.58L2.50-11.58Q1.92-14.40 1.92-23.94L1.92-23.94L1.92-23.94Q1.92-29.50 2.50-33.66L2.50-33.66L2.50-33.66Q3.07-37.82 4.67-40.45L4.67-40.45L4.67-40.45Q6.53-43.33 9.34-44.67L9.34-44.67L9.34-44.67Q12.29-46.08 17.73-46.14L17.73-46.14L17.73-46.14Q24.77-45.12 27.01-41.15L27.01-41.15L27.01-41.15Q29.25-37.18 29.63-32.64L29.63-32.64L29.63-32.64Q30.02-28.16 30.02-22.21L30.02-22.21L30.02-22.21Q30.02-16.06 29.18-11.26L29.18-11.26L29.18-11.26Q28.42-6.21 24.93-3.23L24.93-3.23L24.93-3.23Q21.44-0.26 15.87-0.26L15.87-0.26ZM17.15-42.43L17.15-42.43Q15.30-42.43 12.86-41.09L12.86-41.09L12.86-41.09Q10.56-39.87 9.28-37.31L9.28-37.31L9.28-37.31Q8.13-35.01 8.13-32.32L8.13-32.32L8.13-32.32Q8.13-30.46 8.19-29.25L8.19-29.25L8.26-23.74L8.38-17.54L8.38-17.54Q8.58-12.29 10.37-10.11L10.37-10.11L10.37-10.11Q12.93-7.04 13.57-6.14L13.57-6.14L13.57-6.14Q14.91-4.35 17.92-4.35L17.92-4.35L17.92-4.35Q19.78-4.35 21.79-5.73L21.79-5.73L21.79-5.73Q23.81-7.10 25.28-9.66L25.28-9.66L25.28-9.66Q26.69-12.03 26.69-15.74L26.69-15.74L26.62-20.22L26.62-20.22Q26.56-21.06 26.56-22.34L26.56-22.34L26.56-22.34Q26.69-27.20 26.69-28.74L26.69-28.74L26.69-28.74Q26.69-32.51 26.43-34.37L26.43-34.37L26.43-34.37Q25.92-38.27 24.83-40.19L24.83-40.19L24.83-40.19Q23.68-42.24 21.50-42.43L21.50-42.43L21.50-42.43Q20.10-42.56 19.33-42.56L19.33-42.56L19.33-42.56Q18.69-42.56 17.15-42.43L17.15-42.43ZM17.98-26.62L17.98-26.62Q21.25-26.62 21.25-22.46L21.25-22.46L21.25-22.46Q21.25-21.31 20.22-20.51L20.22-20.51L20.22-20.51Q19.20-19.71 17.98-19.71L17.98-19.71L17.98-19.71Q16.70-19.71 15.78-20.67L15.78-20.67L15.78-20.67Q14.85-21.63 14.85-23.42L14.85-23.42L14.85-23.42Q14.85-25.34 15.71-25.98L15.71-25.98L15.71-25.98Q16.58-26.62 17.98-26.62L17.98-26.62ZM55.30-25.09L55.30-25.09Q57.28-24.06 59.01-22.27L59.01-22.27L59.01-22.27Q62.72-18.30 62.72-12.93L62.72-12.93L62.72-12.93Q62.72-8.83 60.70-5.82L60.70-5.82L60.70-5.82Q58.69-2.82 55.23-1.22L55.23-1.22L55.23-1.22Q51.78 0.38 47.42 0.38L47.42 0.38L47.42 0.38Q40.38 0.38 36.83-2.78L36.83-2.78L36.83-2.78Q33.28-5.95 33.28-11.46L33.28-11.46L33.28-11.46Q33.28-16.90 39.36-21.95L39.36-21.95L39.36-21.95Q42.05-24.06 45.50-25.60L45.50-25.60L45.50-25.60Q44.86-26.24 44.86-26.24L44.86-26.24L44.86-26.24Q44.67-26.56 44.10-27.01L44.10-27.01L44.10-27.01Q43.52-27.46 43.14-27.84L43.14-27.84L43.14-27.84Q42.75-28.10 41.31-28.99L41.31-28.99L41.31-28.99Q39.87-29.89 38.88-31.87L38.88-31.87L38.88-31.87Q37.89-33.86 37.89-36.99L37.89-36.99L37.89-36.99Q37.89-40.26 39.71-42.50L39.71-42.50L39.71-42.50Q41.54-44.74 44.19-45.79L44.19-45.79L44.19-45.79Q46.85-46.85 49.47-46.85L49.47-46.85L49.47-46.85Q51.58-46.85 54.14-45.95L54.14-45.95L54.14-45.95Q56.70-45.06 58.66-42.91L58.66-42.91L58.66-42.91Q60.61-40.77 60.61-37.18L60.61-37.18L60.61-37.18Q60.61-32.38 57.92-28.16L57.92-28.16L57.92-28.16Q56.90-26.37 55.30-25.09L55.30-25.09ZM41.09-38.08L41.09-38.08Q41.09-33.60 45.18-29.89L45.18-29.89L45.18-29.89Q46.98-28.29 49.41-27.20L49.41-27.20L49.41-27.20Q51.26-28.03 52.93-29.31L52.93-29.31L52.93-29.31Q56.45-32.19 56.45-35.33L56.45-35.33L56.45-35.33Q56.45-39.23 54.50-41.54L54.50-41.54L54.50-41.54Q52.54-43.84 48.96-43.84L48.96-43.84L48.96-43.84Q47.42-43.84 45.57-43.07L45.57-43.07L45.57-43.07Q43.71-42.30 42.40-40.96L42.40-40.96L42.40-40.96Q41.09-39.62 41.09-38.08L41.09-38.08ZM49.47-2.24L49.47-2.24Q52.16-2.24 54.43-3.94L54.43-3.94L54.43-3.94Q56.70-5.63 58.02-8.16L58.02-8.16L58.02-8.16Q59.33-10.69 59.33-12.93L59.33-12.93L59.33-12.93Q59.33-15.55 57.98-17.57L57.98-17.57L57.98-17.57Q56.64-19.58 54.59-20.99L54.59-20.99L54.59-20.99Q52.48-22.53 49.92-23.36L49.92-23.36L49.92-23.36Q46.27-21.95 43.39-20.10L43.39-20.10L43.39-20.10Q40.64-18.43 38.78-16.03L38.78-16.03L38.78-16.03Q36.93-13.63 36.93-10.88L36.93-10.88L36.93-10.88Q36.93-7.10 38.72-5.22L38.72-5.22L38.72-5.22Q40.51-3.33 43.14-2.78L43.14-2.78L43.14-2.78Q45.76-2.24 49.47-2.24L49.47-2.24Z" fill="#542b55"></path></g></g><style>text {
  font-size: 64px;
  font-family: Arial Black;
  dominant-baseline: central;
  text-anchor: middle;
}</style></svg>