<svg width="107.05000610351563px" height="118.39999999999999px" xmlns="http://www.w3.org/2000/svg" viewBox="196.4749969482422 15.800000000000004 107.05000610351563 118.39999999999999" style="background: rgba(181, 204, 241, 0);" preserveAspectRatio="xMidYMid"><defs><filter id="editing-hover" x="-100%" y="-100%" width="300%" height="300%"><feFlood flood-color="#a497c1" result="flood"></feFlood><feComposite operator="in" in2="SourceAlpha" in="flood" result="shadow"></feComposite><feOffset dx="-4" dy="-4" in="SourceGraphic" result="offset-1"></feOffset><feOffset dx="4" dy="4" in="shadow" result="offset-2"></feOffset><feMerge><feMergeNode in="offset-2"></feMergeNode><feMergeNode in="offset-1"></feMergeNode></feMerge></filter></defs><g filter="url(#editing-hover)"><g transform="translate(217.70998001098633, 99.09499740600586)"><path d="M15.87-0.26L15.87-0.26Q9.92-0.58 8.32-1.41L8.32-1.41L8.32-1.41Q6.72-2.24 4.93-5.50L4.93-5.50L4.93-5.50Q3.20-8.70 2.50-11.58L2.50-11.58L2.50-11.58Q1.92-14.40 1.92-23.94L1.92-23.94L1.92-23.94Q1.92-29.50 2.50-33.66L2.50-33.66L2.50-33.66Q3.07-37.82 4.67-40.45L4.67-40.45L4.67-40.45Q6.53-43.33 9.34-44.67L9.34-44.67L9.34-44.67Q12.29-46.08 17.73-46.14L17.73-46.14L17.73-46.14Q24.77-45.12 27.01-41.15L27.01-41.15L27.01-41.15Q29.25-37.18 29.63-32.64L29.63-32.64L29.63-32.64Q30.02-28.16 30.02-22.21L30.02-22.21L30.02-22.21Q30.02-16.06 29.18-11.26L29.18-11.26L29.18-11.26Q28.42-6.21 24.93-3.23L24.93-3.23L24.93-3.23Q21.44-0.26 15.87-0.26L15.87-0.26ZM17.15-42.43L17.15-42.43Q15.30-42.43 12.86-41.09L12.86-41.09L12.86-41.09Q10.56-39.87 9.28-37.31L9.28-37.31L9.28-37.31Q8.13-35.01 8.13-32.32L8.13-32.32L8.13-32.32Q8.13-30.46 8.19-29.25L8.19-29.25L8.26-23.74L8.38-17.54L8.38-17.54Q8.58-12.29 10.37-10.11L10.37-10.11L10.37-10.11Q12.93-7.04 13.57-6.14L13.57-6.14L13.57-6.14Q14.91-4.35 17.92-4.35L17.92-4.35L17.92-4.35Q19.78-4.35 21.79-5.73L21.79-5.73L21.79-5.73Q23.81-7.10 25.28-9.66L25.28-9.66L25.28-9.66Q26.69-12.03 26.69-15.74L26.69-15.74L26.62-20.22L26.62-20.22Q26.56-21.06 26.56-22.34L26.56-22.34L26.56-22.34Q26.69-27.20 26.69-28.74L26.69-28.74L26.69-28.74Q26.69-32.51 26.43-34.37L26.43-34.37L26.43-34.37Q25.92-38.27 24.83-40.19L24.83-40.19L24.83-40.19Q23.68-42.24 21.50-42.43L21.50-42.43L21.50-42.43Q20.10-42.56 19.33-42.56L19.33-42.56L19.33-42.56Q18.69-42.56 17.15-42.43L17.15-42.43ZM17.98-26.62L17.98-26.62Q21.25-26.62 21.25-22.46L21.25-22.46L21.25-22.46Q21.25-21.31 20.22-20.51L20.22-20.51L20.22-20.51Q19.20-19.71 17.98-19.71L17.98-19.71L17.98-19.71Q16.70-19.71 15.78-20.67L15.78-20.67L15.78-20.67Q14.85-21.63 14.85-23.42L14.85-23.42L14.85-23.42Q14.85-25.34 15.71-25.98L15.71-25.98L15.71-25.98Q16.58-26.62 17.98-26.62L17.98-26.62ZM48-45.89L48-45.89Q53.38-45.89 56.64-41.50L56.64-41.50L56.64-41.50Q59.90-37.12 61.28-31.62L61.28-31.62L61.28-31.62Q62.66-26.11 62.66-22.46L62.66-22.46L62.66-22.46Q62.66-11.58 60.16-7.30L60.16-7.30L60.16-7.30Q58.75-4.67 57.31-2.75L57.31-2.75L57.31-2.75Q55.87-0.83 53.54 0.61L53.54 0.61L53.54 0.61Q51.20 2.05 48.06 2.05L48.06 2.05L48.06 2.05Q44.93 2.05 42.56 0.70L42.56 0.70L42.56 0.70Q40.19-0.64 38.72-2.46L38.72-2.46L38.72-2.46Q37.25-4.29 35.71-6.85L35.71-6.85L35.71-6.85Q34.75-8.51 34.75-9.73L34.75-9.73L34.75-9.73Q34.75-10.69 35.33-11.17L35.33-11.17L35.33-11.17Q35.90-11.65 36.42-11.65L36.42-11.65L36.42-11.65Q36.93-11.65 37.70-11.74L37.70-11.74L37.70-11.74Q38.46-11.84 39.17-11.84L39.17-11.84L39.17-11.84Q39.94-11.84 40.45-11.46L40.45-11.46L40.45-11.46Q40.96-11.07 41.54-10.24L41.54-10.24L41.54-10.24Q42.56-8.83 43.90-8L43.90-8L43.90-8Q45.25-7.17 48.13-7.17L48.13-7.17L48.13-7.17Q50.62-7.17 52-8.86L52-8.86L52-8.86Q53.38-10.56 53.95-13.18L53.95-13.18L53.95-13.18Q54.66-15.81 54.53-19.26L54.53-19.26L54.53-19.26Q53.25-17.79 51.90-16.64L51.90-16.64L51.90-16.64Q48.77-14.02 46.85-14.02L46.85-14.02L46.85-14.02Q43.84-14.02 41.02-14.75L41.02-14.75L41.02-14.75Q38.21-15.49 35.78-18.46L35.78-18.46L35.78-18.46Q33.34-21.44 33.34-27.58L33.34-27.58L33.34-27.58Q33.34-34.30 35.87-38.40L35.87-38.40L35.87-38.40Q38.40-42.50 41.79-44.19L41.79-44.19L41.79-44.19Q45.18-45.89 48-45.89L48-45.89ZM53.38-27.52L53.38-27.52Q53.38-30.08 53.09-32L53.09-32L53.09-32Q52.80-33.92 51.23-35.62L51.23-35.62L51.23-35.62Q49.66-37.31 46.34-37.31L46.34-37.31L46.34-37.31Q44.86-37.31 43.30-36.38L43.30-36.38L43.30-36.38Q41.73-35.46 40.67-33.60L40.67-33.60L40.67-33.60Q39.62-31.74 39.62-29.12L39.62-29.12L39.62-29.12Q39.62-25.22 41.73-23.33L41.73-23.33L41.73-23.33Q43.84-21.44 46.46-21.44L46.46-21.44L46.46-21.44Q47.94-21.44 49.50-22.34L49.50-22.34L49.50-22.34Q51.07-23.23 52.16-24.67L52.16-24.67L52.16-24.67Q53.25-26.11 53.38-27.52L53.38-27.52Z" fill="#542b55"></path></g></g><style>text {
  font-size: 64px;
  font-family: Arial Black;
  dominant-baseline: central;
  text-anchor: middle;
}</style></svg>