<svg xmlns="http://www.w3.org/2000/svg" xmlns:xlink="http://www.w3.org/1999/xlink" version="1.1" width="1000" height="1000" viewBox="0 0 1000 1000" xml:space="preserve">
<desc>Created with Fabric.js 3.5.0</desc>
<defs>
</defs>
<rect x="0" y="0" width="100%" height="100%" fill="#ffffff"/>
<g transform="matrix(0.0904 0 0 0.0904 61.7131 938.2468)" id="386841">
<g style="" vector-effect="non-scaling-stroke">
		<g transform="matrix(0.1333 0 0 -0.1333 -0.1707 -0.1707)">
<path style="stroke: none; stroke-width: 1; stroke-dasharray: none; stroke-linecap: butt; stroke-dashoffset: 0; stroke-linejoin: miter; stroke-miterlimit: 4; is-custom-font: none; font-file-url: none; fill: rgb(0,0,0); fill-rule: nonzero; opacity: 1;" transform=" translate(-5120, -5120)" d="M 0 5120 l 0 -5120 l 5120 0 l 5120 0 l 0 5120 l 0 5120 l -5120 0 l -5120 0 l 0 -5120 z m 5060 2800 c 127 -14 200 -33 290 -77 c 198 -97 312 -311 312 -588 c 0 -195 -48 -332 -156 -439 c -113 -113 -247 -159 -510 -176 c -128 -9 -166 -14 -186 -29 l -25 -18 l -3 -246 l -2 -246 l -27 -20 c -23 -19 -40 -21 -145 -21 l -120 0 l -30 31 l -31 30 l 7 182 c 3 100 11 495 17 877 c 10 681 11 695 31 717 c 11 12 30 24 42 26 c 44 9 445 6 536 -3 z m 1380 0 c 267 -28 441 -130 538 -317 c 58 -113 75 -186 76 -328 c 1 -265 -106 -457 -309 -555 c -100 -48 -200 -67 -448 -86 c -60 -4 -84 -11 -104 -28 l -25 -22 l 1 -238 c 2 -304 13 -286 -169 -286 c -123 0 -128 1 -155 26 l -28 26 l 6 331 c 4 183 10 571 13 862 c 3 315 10 544 16 563 c 17 55 44 61 283 61 c 116 1 253 -4 305 -9 z m -4243 -26 c 26 -26 26 -26 19 -137 c -39 -611 -39 -607 14 -635 c 39 -20 305 -12 347 10 c 53 29 56 54 52 418 c -4 311 -3 329 15 349 c 18 20 29 21 166 21 c 126 0 151 -3 169 -17 l 22 -18 l 5 -820 c 3 -451 7 -853 8 -893 c 2 -109 -4 -112 -196 -112 c -145 0 -150 1 -173 25 c -29 28 -29 17 -9 255 c 8 102 17 246 21 322 c 6 136 6 136 -19 161 c -32 31 -96 41 -246 36 c -119 -5 -154 -18 -174 -67 c -7 -19 -7 -119 0 -337 c 6 -170 8 -323 5 -338 c -10 -50 -33 -57 -186 -57 c -133 0 -139 1 -162 25 l -25 24 l 0 598 c -1 329 -5 722 -10 872 c -7 229 -6 279 6 302 c 7 15 19 29 26 32 c 7 3 77 6 156 6 c 141 1 143 1 169 -25 z m 1725 15 c 115 -24 156 -68 187 -199 c 55 -234 144 -896 186 -1393 c 23 -260 22 -261 -206 -255 c -118 3 -140 6 -158 22 c -21 19 -21 26 -21 381 l 0 362 l -26 24 c -24 22 -34 24 -153 27 c -158 4 -194 -7 -210 -65 c -7 -23 -11 -166 -11 -370 c 0 -320 -1 -334 -20 -353 c -18 -18 -33 -20 -158 -20 c -135 0 -139 1 -162 25 l -24 25 l 18 163 c 63 586 175 1360 214 1487 c 21 67 73 123 128 138 c 53 14 351 15 416 1 z m 3608 -4 c 15 -8 30 -20 33 -27 c 2 -7 2 -159 -1 -338 c -7 -487 14 -596 126 -658 c 31 -18 57 -23 107 -23 c 124 0 179 54 213 208 c 14 65 16 139 17 445 c 0 339 1 369 18 385 c 15 16 37 18 172 18 c 149 0 154 -1 179 -24 c 25 -23 26 -29 26 -135 c 0 -61 -5 -172 -10 -246 c -33 -453 -116 -637 -337 -748 c -43 -22 -85 -48 -93 -56 c -11 -14 -12 -71 -6 -311 l 7 -295 l -25 -25 c -24 -24 -29 -25 -166 -25 c -138 0 -141 1 -167 26 l -26 26 l 8 294 c 8 342 16 316 -102 369 c -130 60 -210 155 -262 312 c -44 132 -61 268 -68 544 l -6 247 l 26 26 c 26 26 29 26 167 26 c 105 0 148 -4 170 -15 z m -3431 -2054 c 69 -14 91 -44 98 -133 c 11 -147 -14 -192 -115 -204 c -112 -12 -167 -67 -192 -189 c -17 -81 -24 -427 -11 -543 c 21 -191 55 -232 215 -257 c 23 -4 50 -18 66 -33 c 24 -24 27 -37 32 -117 c 7 -108 -5 -152 -47 -176 c -27 -15 -72 -17 -395 -19 c -446 -3 -419 -5 -453 23 c -36 29 -48 81 -40 181 c 8 108 30 133 127 147 c 168 23 195 88 196 471 c 0 231 -12 333 -46 406 c -31 64 -78 98 -149 108 c -60 8 -101 27 -115 53 c -5 11 -10 66 -10 123 c 0 117 10 142 63 157 c 40 12 717 13 776 2 z m 1163 -25 c 91 -20 147 -46 197 -92 c 85 -76 121 -171 121 -321 c 0 -110 -23 -193 -75 -269 c -41 -59 -84 -92 -170 -129 c -109 -47 -130 -60 -133 -80 c -5 -37 137 -251 358 -538 c 98 -128 106 -152 65 -192 c -24 -25 -27 -25 -192 -25 c -217 0 -213 -2 -289 157 c -231 480 -283 582 -304 593 c -32 17 -85 4 -110 -27 c -19 -25 -20 -39 -20 -340 c 0 -320 -2 -342 -39 -370 c -11 -8 -58 -12 -139 -13 c -117 0 -124 1 -147 25 l -25 24 l 0 779 l 0 779 l 26 24 c 23 22 37 25 142 30 c 204 11 659 2 734 -15 z m 2238 9 c 49 -25 49 -25 14 -443 c -19 -229 -17 -258 26 -279 c 39 -20 309 -17 360 3 c 73 29 75 37 78 386 c 3 293 4 307 24 325 c 18 16 39 18 179 18 c 151 0 160 -1 181 -22 l 22 -23 l 1 -617 c 1 -340 5 -693 10 -785 l 8 -166 l -31 -31 l -30 -31 l -157 0 c -152 0 -156 1 -180 25 c -32 31 -32 30 2 367 c 30 310 29 318 -34 344 c -30 13 -70 15 -204 12 c -151 -3 -170 -5 -196 -24 c -15 -11 -30 -34 -33 -50 c -6 -29 3 -349 15 -522 l 6 -92 l -30 -30 l -29 -30 l -137 0 c -137 0 -170 7 -190 39 c -6 10 -10 200 -10 516 c 0 300 -6 609 -14 773 c -16 291 -14 318 29 339 c 38 19 282 17 320 -2 z m -4762 -21 c 65 -32 106 -79 148 -169 c 53 -110 62 -198 40 -388 c -10 -84 -15 -165 -11 -178 c 4 -13 41 -58 81 -100 c 51 -53 84 -98 106 -145 c 32 -67 33 -73 33 -199 c 0 -111 -3 -139 -23 -190 c -47 -122 -123 -194 -252 -238 c -62 -21 -82 -22 -505 -25 c -471 -3 -475 -3 -494 47 c -6 16 -12 321 -16 788 l -7 762 l 30 31 l 30 30 l 394 0 l 394 0 l 52 -26 z m 4223 -12 c 28 -32 29 -34 29 -147 c 0 -192 -6 -197 -257 -203 c -205 -5 -232 -13 -259 -77 c -31 -74 -7 -266 61 -485 c 62 -200 83 -296 96 -428 c 20 -206 7 -261 -70 -282 c -56 -16 -375 -13 -414 4 c -68 28 -70 36 -64 223 c 6 179 16 235 90 508 c 46 168 58 237 59 349 c 1 103 -14 146 -60 170 c -18 9 -85 16 -211 21 c -182 8 -184 8 -215 35 c -31 28 -31 29 -34 145 c -4 133 5 166 51 189 c 28 14 100 16 600 13 l 569 -2 l 29 -33 z m 591 -1834 l 26 -17 l 4 -293 c 5 -340 8 -355 80 -388 c 32 -15 65 -20 133 -20 c 109 0 165 21 190 71 c 25 47 38 220 32 427 c -5 180 -5 184 18 210 l 22 26 l 149 -3 c 172 -2 188 -8 199 -71 c 8 -47 -1 -306 -16 -455 c -19 -187 -63 -301 -150 -386 c -46 -44 -88 -69 -201 -117 c -79 -34 -79 -35 -63 -282 c 20 -299 20 -306 -10 -335 c -23 -24 -29 -25 -160 -25 c -133 0 -136 1 -162 26 l -26 26 l 7 266 c 6 213 5 271 -6 284 c -7 10 -51 34 -98 53 c -163 68 -229 132 -274 266 c -36 109 -46 198 -53 459 c -5 229 -5 236 16 262 c 28 34 41 37 192 34 c 98 -1 131 -5 151 -18 z m -4021 3 c 144 -12 231 -32 334 -80 c 232 -108 370 -321 420 -651 c 58 -373 -54 -696 -289 -834 c -24 -14 -79 -37 -122 -52 c -74 -25 -95 -27 -349 -36 c -311 -10 -367 -7 -401 27 l -24 24 l 0 779 l 0 779 l 23 20 c 12 12 33 23 47 26 c 45 8 243 7 361 -2 z m 1629 -17 c 58 -27 75 -48 100 -118 c 51 -149 134 -698 180 -1190 c 25 -266 25 -269 -4 -303 c -23 -27 -28 -28 -128 -30 c -127 -2 -176 5 -200 29 c -17 17 -18 40 -18 338 l 0 321 l -23 23 c -29 29 -116 41 -224 31 c -61 -6 -81 -12 -99 -31 l -24 -23 l 0 -305 c 0 -298 -5 -350 -33 -368 c -7 -4 -69 -8 -139 -8 c -126 0 -127 0 -148 27 c -24 31 -26 0 21 428 c 32 295 61 504 115 835 c 58 360 69 371 399 367 c 158 -2 185 -5 225 -23 z m 1567 2 c 185 -39 249 -102 293 -289 c 42 -181 75 -573 87 -1053 l 6 -260 l -28 -22 c -25 -20 -40 -22 -136 -22 c -98 0 -110 2 -135 23 c -26 22 -27 29 -40 193 c -18 223 -30 293 -52 324 c -39 52 -55 55 -365 58 c -269 3 -290 2 -332 -17 c -34 -15 -49 -29 -60 -55 c -8 -19 -23 -131 -34 -257 c -25 -280 -17 -269 -180 -269 c -124 0 -147 10 -160 70 c -17 79 20 806 55 1080 c 49 384 92 450 322 495 c 118 23 129 23 417 20 c 194 -2 290 -8 342 -19 z m -4548 -10 c 26 -24 27 -72 6 -381 c -19 -279 -19 -262 10 -290 c 23 -24 28 -25 170 -25 c 160 0 192 8 213 55 c 8 18 12 116 12 330 l 0 304 l 30 16 c 21 11 61 15 145 15 c 84 0 124 -4 145 -15 c 17 -9 30 -19 31 -23 c 0 -4 2 -281 3 -617 c 2 -335 7 -685 11 -776 l 8 -167 l -26 -26 c -26 -25 -29 -26 -162 -26 c -132 0 -137 1 -161 25 c -29 29 -29 5 2 356 c 26 306 26 305 -109 322 c -118 15 -247 -1 -282 -33 c -30 -28 -31 -63 -14 -402 l 11 -219 l -23 -25 c -22 -23 -27 -24 -156 -24 c -129 0 -135 1 -158 25 l -25 24 l 0 438 c 0 241 -5 587 -12 769 c -15 424 -30 394 189 390 c 103 -2 125 -5 142 -20 z" stroke-linecap="round"/>
</g>
		<g transform="matrix(0.1333 0 0 -0.1333 -13.4761 -289.3844)">
<path style="stroke: none; stroke-width: 1; stroke-dasharray: none; stroke-linecap: butt; stroke-dashoffset: 0; stroke-linejoin: miter; stroke-miterlimit: 4; is-custom-font: none; font-file-url: none; fill: rgb(0,0,0); fill-rule: nonzero; opacity: 1;" transform=" translate(-5019, -7290.2862)" d="M 4830 7658 c -25 -13 -56 -39 -69 -58 l -23 -35 l 6 -270 c 3 -148 10 -286 16 -306 c 5 -19 22 -46 36 -60 c 23 -22 35 -24 142 -27 c 266 -8 362 73 362 304 c 0 161 -41 309 -108 385 c -51 59 -113 83 -222 87 c -84 3 -100 1 -140 -20 z" stroke-linecap="round"/>
</g>
		<g transform="matrix(0.1333 0 0 -0.1333 170.7195 -289.7678)">
<path style="stroke: none; stroke-width: 1; stroke-dasharray: none; stroke-linecap: butt; stroke-dashoffset: 0; stroke-linejoin: miter; stroke-miterlimit: 4; is-custom-font: none; font-file-url: none; fill: rgb(0,0,0); fill-rule: nonzero; opacity: 1;" transform=" translate(-6400.467, -7293.1601)" d="M 6247 7676 c -51 -14 -90 -45 -113 -88 c -17 -33 -19 -298 -4 -482 c 16 -193 38 -211 245 -204 c 136 5 187 21 242 78 c 47 48 65 112 64 228 c -1 238 -88 421 -220 461 c -64 19 -161 22 -214 7 z" stroke-linecap="round"/>
</g>
		<g transform="matrix(0.1333 0 0 -0.1333 -184.4031 -300.06)">
<path style="stroke: none; stroke-width: 1; stroke-dasharray: none; stroke-linecap: butt; stroke-dashoffset: 0; stroke-linejoin: miter; stroke-miterlimit: 4; is-custom-font: none; font-file-url: none; fill: rgb(0,0,0); fill-rule: nonzero; opacity: 1;" transform=" translate(-3737.0267, -7370.3785)" d="M 3707 7650 c -74 -14 -126 -76 -147 -175 c -18 -81 -30 -291 -19 -330 c 15 -52 36 -58 201 -59 c 127 -1 150 1 165 16 c 39 40 41 433 2 496 c -28 44 -120 68 -202 52 z" stroke-linecap="round"/>
</g>
		<g transform="matrix(0.1333 0 0 -0.1333 -23.931 -35.4544)">
<path style="stroke: none; stroke-width: 1; stroke-dasharray: none; stroke-linecap: butt; stroke-dashoffset: 0; stroke-linejoin: miter; stroke-miterlimit: 4; is-custom-font: none; font-file-url: none; fill: rgb(0,0,0); fill-rule: nonzero; opacity: 1;" transform=" translate(-4940.5904, -5385.8448)" d="M 4805 5630 c -144 -11 -158 -34 -153 -251 c 3 -168 10 -190 65 -226 c 40 -26 295 -26 370 0 c 108 38 142 92 143 225 c 0 165 -63 233 -233 252 c -45 6 -89 9 -97 8 c -8 0 -51 -4 -95 -8 z" stroke-linecap="round"/>
</g>
		<g transform="matrix(0.1333 0 0 -0.1333 -362.3385 -33.9791)">
<path style="stroke: none; stroke-width: 1; stroke-dasharray: none; stroke-linecap: butt; stroke-dashoffset: 0; stroke-linejoin: miter; stroke-miterlimit: 4; is-custom-font: none; font-file-url: none; fill: rgb(0,0,0); fill-rule: nonzero; opacity: 1;" transform=" translate(-2402.5201, -5374.7796)" d="M 2219 5616 c -45 -26 -54 -65 -53 -246 c 1 -198 9 -222 77 -241 c 54 -15 216 -5 279 16 c 62 22 94 61 108 132 c 32 151 -22 281 -135 329 c -57 23 -240 30 -276 10 z" stroke-linecap="round"/>
</g>
		<g transform="matrix(0.1333 0 0 -0.1333 -346.7426 59.0449)">
<path style="stroke: none; stroke-width: 1; stroke-dasharray: none; stroke-linecap: butt; stroke-dashoffset: 0; stroke-linejoin: miter; stroke-miterlimit: 4; is-custom-font: none; font-file-url: none; fill: rgb(0,0,0); fill-rule: nonzero; opacity: 1;" transform=" translate(-2519.5025, -4677.0954)" d="M 2356 4939 c -57 -13 -103 -52 -116 -97 c -12 -44 -13 -239 -1 -301 c 10 -52 36 -89 82 -116 c 29 -17 51 -20 149 -19 c 146 1 219 20 271 73 c 101 101 86 335 -27 413 c -21 15 -66 34 -99 43 c -65 16 -197 18 -259 4 z" stroke-linecap="round"/>
</g>
		<g transform="matrix(0.1333 0 0 -0.1333 -190.5063 265.4991)">
<path style="stroke: none; stroke-width: 1; stroke-dasharray: none; stroke-linecap: butt; stroke-dashoffset: 0; stroke-linejoin: miter; stroke-miterlimit: 4; is-custom-font: none; font-file-url: none; fill: rgb(0,0,0); fill-rule: nonzero; opacity: 1;" transform=" translate(-3691.2861, -3128.6299)" d="M 3414 3626 c -56 -25 -57 -36 -51 -474 c 3 -218 10 -417 15 -441 c 16 -73 37 -85 149 -90 c 164 -6 283 30 371 113 c 88 82 125 192 124 365 c 0 175 -40 289 -138 391 c -90 95 -186 134 -353 145 c -63 4 -94 2 -117 -9 z" stroke-linecap="round"/>
</g>
		<g transform="matrix(0.1333 0 0 -0.1333 -26.3628 217.0131)">
<path style="stroke: none; stroke-width: 1; stroke-dasharray: none; stroke-linecap: butt; stroke-dashoffset: 0; stroke-linejoin: miter; stroke-miterlimit: 4; is-custom-font: none; font-file-url: none; fill: rgb(0,0,0); fill-rule: nonzero; opacity: 1;" transform=" translate(-4922.325, -3492.3397)" d="M 4850 3722 c -72 -36 -98 -110 -107 -307 c -5 -110 -4 -122 15 -145 c 20 -25 23 -25 166 -25 c 126 0 148 2 163 18 c 16 16 18 38 17 195 c -1 206 -10 243 -68 267 c -49 21 -143 19 -186 -3 z" stroke-linecap="round"/>
</g>
		<g transform="matrix(0.1333 0 0 -0.1333 163.9809 224.8452)">
<path style="stroke: none; stroke-width: 1; stroke-dasharray: none; stroke-linecap: butt; stroke-dashoffset: 0; stroke-linejoin: miter; stroke-miterlimit: 4; is-custom-font: none; font-file-url: none; fill: rgb(0,0,0); fill-rule: nonzero; opacity: 1;" transform=" translate(-6349.9463, -3433.5831)" d="M 6262 3739 c -51 -5 -94 -17 -137 -38 c -99 -49 -123 -95 -132 -256 c -10 -176 33 -258 158 -301 c 78 -27 309 -27 393 0 c 139 46 185 154 156 359 c -13 86 -40 140 -90 176 c -70 51 -210 75 -348 60 z" stroke-linecap="round"/>
</g>
</g>
</g>
</svg>